<?xml version="1.0" standalone="no"?>
<!DOCTYPE svg PUBLIC "-//W3C//DTD SVG 1.1//EN" "http://www.w3.org/Graphics/SVG/1.1/DTD/svg11.dtd">
<svg xmlns="http://www.w3.org/2000/svg">
<defs >
<font id="Jura" horiz-adv-x="1112" ><font-face
    font-family="Jura SemiBold"
    units-per-em="2000"
    panose-1="0 0 0 0 0 0 0 0 0 0"
    ascent="1930"
    descent="-436"
    alphabetic="0" />
<glyph unicode=" " glyph-name="space" horiz-adv-x="586" />
<glyph unicode="!" glyph-name="exclam" horiz-adv-x="509" d="M256 270Q183 270 183 343V1330Q183 1403 256 1403Q330 1403 330 1330V343Q330 270 256 270ZM234 0Q161 0 161 73V119Q161 190 234 190H278Q348 190 348 119V73Q348 0 278 0H234Z" />
<glyph unicode="&quot;" glyph-name="quotedbl" horiz-adv-x="733" d="M224 905Q199 905 180 924T161 968V1376Q161 1402 180 1420T224 1439Q250 1439 268 1421T287 1376V968Q287 943 269 924T224 905ZM509 905Q484 905 465 924T446 968V1376Q446 1402 465 1420T509
1439Q535 1439 553 1421T572 1376V968Q572 943 554 924T509 905Z" />
<glyph unicode="#" glyph-name="numbersign" horiz-adv-x="1214" d="M246 -19Q221 -19 202 0T183 44Q183 49 183 53T185 62L281 403H144Q119 403 100 422T81 466Q81 492 100 510T144 529H316L393 803H256Q231 803 212 822T193 866Q193 892 212 910T256 929H427L525
1282Q531 1302 547 1315T586 1329Q612 1329 630 1311T649 1266Q649 1262 649 1258T647 1248L557 929H787L885 1282Q891 1302 907 1315T946 1329Q972 1329 990 1311T1009 1266Q1009 1262 1009 1258T1007 1248L917 929H1110Q1136 929 1154 911T1173 866Q1173 841
1155 822T1110 803H883L808 529H998Q1024 529 1042 511T1061 466Q1061 441 1043 422T998 403H771L667 28Q662 8 645 -5T606 -19Q581 -19 562 0T543 44Q543 49 543 53T545 62L641 403H411L307 28Q302 8 285 -5T246 -19ZM448 529H676L753 803H523L448 529Z" />
<glyph unicode="$" glyph-name="dollar" horiz-adv-x="1323" d="M524 0Q337 0 249 89T160 364Q160 394 182 415T234 437Q264 437 285 416T307 364Q307 238 354 193T524 147H800Q923 147 969 192T1016 364Q1016 490 970 535T800 580H554Q377 580 292 664T206 924Q206
1102 291 1186T552 1270H794Q970 1270 1054 1186T1139 926Q1139 896 1118 875T1066 853Q1036 853 1014 874T992 926Q992 1040 951 1081T794 1123H552Q437 1123 395 1081T353 924Q353 811 395 769T554 727H800Q985 727 1074 638T1163 364Q1163 179 1074 90T800 0H524ZM663
-176Q600 -176 600 -113V621L611 691V1410Q611 1473 674 1473Q737 1473 737 1410V683L726 621V-113Q726 -176 663 -176Z" />
<glyph unicode="%" glyph-name="percent" horiz-adv-x="1675" d="M398 628Q258 628 190 697T121 907V1057Q121 1197 189 1265T398 1334H430Q570 1334 638 1265T707 1057V909Q707 767 639 698T430 628H398ZM259 907Q259 824 287 796T398 768H430Q512 768 540 796T569
909V1057Q569 1138 541 1166T430 1194H398Q316 1194 288 1167T259 1057V907ZM1245 0Q1105 0 1037 68T968 277V427Q968 569 1036 636T1245 704H1277Q1417 704 1485 636T1554 427V279Q1554 138 1486 69T1277 0H1245ZM1106 277Q1106 195 1134 167T1245 138H1277Q1359
138 1387 167T1416 279V427Q1416 509 1388 537T1277 566H1245Q1163 566 1135 539T1106 427V277ZM372 -29Q342 -29 321 -8T299 44Q299 57 303 69T313 90L1235 1310Q1258 1340 1294 1340Q1325 1340 1346 1319T1368 1266Q1368 1255 1364 1243T1354 1221L432 1Q408
-29 372 -29Z" />
<glyph unicode="&amp;" glyph-name="ampersand" horiz-adv-x="1275" d="M1213 58Q1165 2 1109 53L439 648Q369 708 331 758T276 859T260 976Q260 1139 338 1218T580 1298H630Q772 1298 849 1239T946 1055Q950 1018 931 998T874 978Q839 978 822 996T796 1050Q785
1109 748 1130T630 1151H580Q481 1151 444 1115T407 976Q407 933 417 902T455 838T537 757L1207 163Q1262 113 1213 58ZM556 -31Q331 -31 226 74T120 404Q120 566 174 665T343 807Q377 821 404 805T438 754Q445 719 428 699T380 664Q319 636 293 575T267 404Q267
294 293 232T383 143T556 116H620Q728 116 791 143T881 232T908 404V485Q908 558 982 558Q1055 558 1055 485V404Q1055 180 950 75T620 -31H556Z" />
<glyph unicode="&apos;" glyph-name="quotesingle" horiz-adv-x="448" d="M224 905Q199 905 180 924T161 968V1376Q161 1402 180 1420T224 1439Q250 1439 268 1421T287 1376V968Q287 943 269 924T224 905Z" />
<glyph unicode="(" glyph-name="parenleft" horiz-adv-x="575" d="M492 -343Q299 -343 210 -234T121 108V878Q121 1122 210 1235T492 1349Q518 1349 536 1331T555 1286Q555 1261 537 1242T492 1223Q401 1223 348 1191T271 1084T247 878V108Q247 -76 301 -146T492
-217Q518 -217 536 -235T555 -280Q555 -305 537 -324T492 -343Z" />
<glyph unicode=")" glyph-name="parenright" horiz-adv-x="575" d="M83 -343Q58 -343 39 -324T20 -280Q20 -254 39 -236T83 -217Q220 -217 274 -147T328 108V878Q328 1008 305 1083T228 1191T83 1223Q58 1223 39 1242T20 1286Q20 1312 39 1330T83 1349Q277 1349
365 1236T454 878V108Q454 -124 366 -233T83 -343Z" />
<glyph unicode="*" glyph-name="asterisk" horiz-adv-x="795" d="M398 703Q333 703 333 766V944L391 910L238 821Q212 807 189 813T150 845Q119 899 175 930L330 1020V955L175 1042Q147 1058 142 1082T150 1129Q166 1155 189 1160T238 1151L391 1062L333 1028V1208Q333
1271 398 1271Q459 1271 459 1208V1027L402 1061L557 1151Q610 1181 642 1129Q675 1074 620 1042L465 955V1020L620 930Q675 898 642 845Q609 791 557 821L402 911L459 945V766Q459 703 398 703Z" />
<glyph unicode="+" glyph-name="plus" horiz-adv-x="1186" d="M536 1022Q536 1085 599 1085Q662 1085 662 1022V284Q662 221 599 221Q536 221 536 284V1022ZM224 591Q161 591 161 654Q161 717 224 717H962Q1025 717 1025 654Q1025 591 962 591H224ZM224 591Q161
591 161 654Q161 717 224 717H962Q1025 717 1025 654Q1025 591 962 591H224Z" />
<glyph unicode="," glyph-name="comma" horiz-adv-x="481" d="M144 -236Q112 -236 94 -220T81 -173L134 125Q137 190 206 190H251Q320 190 320 119V76Q320 58 316 44T304 16L203 -196Q182 -236 144 -236Z" />
<glyph unicode="-" glyph-name="hyphen" horiz-adv-x="1000" d="M224 477Q199 477 180 496T161 540Q161 566 180 584T224 603H776Q802 603 820 585T839 540Q839 515 821 496T776 477H224Z" />
<glyph unicode="." glyph-name="period" horiz-adv-x="509" d="M234 0Q161 0 161 73V119Q161 190 234 190H278Q348 190 348 119V73Q348 0 278 0H234Z" />
<glyph unicode="/" glyph-name="slash" horiz-adv-x="657" d="M154 -295Q112 -295 92 -269T83 -201L493 1392Q510 1450 564 1450Q607 1450 627 1424T635 1355L226 -238Q211 -295 154 -295Z" />
<glyph unicode="0" glyph-name="zero" horiz-adv-x="1319" d="M600 0Q375 0 269 106T162 438V898Q162 1124 268 1229T600 1333H720Q945 1333 1051 1228T1157 896V438Q1157 213 1051 107T720 0H600ZM600 147H720Q829 147 892 174T983 265T1010 438V896Q1010 1005
983 1068T893 1159T720 1186H600Q491 1188 428 1162T337 1072T309 898V438Q309 329 336 266T426 175T600 147ZM638 575Q565 575 565 648V694Q565 765 638 765H682Q752 765 752 694V648Q752 575 682 575H638Z" />
<glyph unicode="1" glyph-name="one" horiz-adv-x="755" d="M482 0Q408 0 408 74V1132L455 1156L236 948Q213 926 189 923T140 943Q92 991 144 1044L402 1297Q438 1334 493 1334Q555 1334 555 1260V74Q555 0 482 0Z" />
<glyph unicode="2" glyph-name="two" horiz-adv-x="1145" d="M948 0H191Q116 0 116 74Q116 201 154 291T257 446T399 560T557 655Q664 716 736 761T845 855T882 974Q882 1097 837 1142T669 1187H455Q354 1187 307 1157T248 1048Q242 1013 225 995T171 976Q134
976 115 996T99 1053Q117 1195 204 1264T455 1334H669Q853 1334 941 1246T1029 974Q1029 860 974 783T827 646T629 527Q533 472 457 422T332 308T268 147H948Q1022 147 1022 74Q1022 0 948 0Z" />
<glyph unicode="3" glyph-name="three" horiz-adv-x="1267" d="M497 1Q324 1 231 74T121 301Q118 338 137 358T193 378Q261 378 268 305Q281 216 332 182T497 148H725Q859 148 908 197T958 378Q958 509 909 559T725 609H561Q487 609 487 682Q487 756 561 756H785Q864
756 895 813T926 974Q926 1097 881 1142T713 1187H519Q418 1187 371 1157T312 1048Q302 976 235 976Q198 976 179 996T165 1053Q182 1195 269 1264T519 1334H713Q897 1334 985 1246T1073 974Q1073 784 955 708Q1032 665 1068 584T1105 378Q1105 185 1013 93T725
1H497Z" />
<glyph unicode="4" glyph-name="four" horiz-adv-x="1194" d="M855 0Q781 0 781 74L785 1155L839 1189L241 390L226 427L1039 430Q1075 430 1094 409T1113 356Q1113 283 1039 283H155Q81 283 81 356Q81 391 111 433L753 1288Q775 1318 798 1326T854 1334Q932 1334
932 1260L928 74Q928 0 855 0Z" />
<glyph unicode="5" glyph-name="five" horiz-adv-x="1288" d="M538 0Q365 0 272 73T162 301Q159 337 178 357T234 378Q302 378 309 306Q322 217 373 182T538 147H746Q880 147 929 197T979 380V518Q979 651 929 700T746 750H598Q437 750 369 705Q344 688 322 680T271
681L254 686Q193 703 193 768V1260Q193 1334 266 1334H1049Q1122 1334 1122 1260Q1122 1187 1049 1187H340V855Q441 897 598 897H746Q940 897 1033 805T1126 518V380Q1126 186 1033 93T746 0H538Z" />
<glyph unicode="6" glyph-name="six" horiz-adv-x="1291" d="M542 1Q347 1 255 93T162 378V974Q162 1158 250 1246T522 1334H770Q932 1334 1020 1265T1124 1053Q1129 1016 1110 996T1054 976Q987 976 977 1048Q966 1127 919 1157T770 1187H522Q399 1187 354 1142T309
974V789Q384 894 542 894H750Q944 894 1036 801T1129 514V380Q1129 186 1037 94T750 1H542ZM542 148H750Q883 148 932 198T982 380V514Q982 647 932 697T750 747H542Q408 747 359 697T309 516V378Q309 247 358 198T542 148Z" />
<glyph unicode="7" glyph-name="seven" horiz-adv-x="1025" d="M373 0Q298 0 301 77Q303 227 318 335T368 522T458 664T599 786Q663 834 704 890T768 1019T796 1187H155Q81 1187 81 1260Q81 1334 155 1334H871Q944 1334 944 1260Q944 1120 918 1012T834 819T684
667Q616 619 571 570T500 457T462 300T448 77Q445 0 373 0Z" />
<glyph unicode="8" glyph-name="eight" horiz-adv-x="1311" d="M981 692Q1149 604 1149 378Q1149 184 1057 92T770 0H542Q347 0 255 92T162 378Q162 610 337 696Q204 789 204 979Q204 1160 292 1247T564 1334H758Q941 1334 1029 1247T1117 979Q1117 782 981 692ZM564
1187Q441 1187 396 1142T351 979Q351 850 394 803T540 755L769 754Q852 754 895 780T954 855T970 979Q970 1097 926 1142T758 1187H564ZM770 147Q903 147 952 196T1002 378Q1002 510 953 559T770 608H542Q408 608 359 559T309 378Q309 246 358 197T542 147H770Z"
/>
<glyph unicode="9" glyph-name="nine" horiz-adv-x="1291" d="M750 1333Q945 1333 1037 1241T1129 956V360Q1129 177 1041 89T770 0H522Q360 0 272 69T167 281Q162 319 181 338T237 358Q304 358 314 286Q325 208 372 178T522 147H770Q893 147 937 192T982 360V545Q908
440 750 440H542Q348 440 255 533T162 820V954Q162 1149 255 1241T542 1333H750ZM750 1186H542Q409 1186 359 1136T309 954V820Q309 687 359 637T542 587H750Q883 587 932 637T982 818V956Q982 1088 933 1137T750 1186Z" />
<glyph unicode=":" glyph-name="colon" horiz-adv-x="509" d="M234 0Q161 0 161 73V119Q161 190 234 190H278Q348 190 348 119V73Q348 0 278 0H234ZM234 660Q161 660 161 733V779Q161 850 234 850H278Q348 850 348 779V733Q348 660 278 660H234Z" />
<glyph unicode=";" glyph-name="semicolon" horiz-adv-x="481" d="M144 -236Q112 -236 94 -220T81 -173L134 125Q137 190 206 190H251Q320 190 320 119V76Q320 58 316 44T304 16L203 -196Q182 -236 144 -236ZM207 660Q134 660 134 733V779Q134 850 207 850H251Q321
850 321 779V733Q321 660 251 660H207Z" />
<glyph unicode="&lt;" glyph-name="less" horiz-adv-x="1186" d="M942 285Q910 229 852 260L281 580Q236 606 236 658Q236 702 281 728L852 1046Q908 1076 942 1021Q972 964 915 931L373 631V679L917 373Q972 339 942 285Z" />
<glyph unicode="=" glyph-name="equal" horiz-adv-x="1186" d="M224 715Q161 715 161 778Q161 841 224 841H962Q1025 841 1025 778Q1025 715 962 715H224ZM224 715Q161 715 161 778Q161 841 224 841H962Q1025 841 1025 778Q1025 715 962 715H224Z" />
<glyph unicode="&gt;" glyph-name="greater" horiz-adv-x="1186" d="M243 285Q212 339 268 373L812 679V631L269 931Q213 964 243 1021Q276 1076 332 1046L903 728Q948 702 948 658Q948 606 903 580L332 260Q274 229 243 285Z" />
<glyph unicode="?" glyph-name="question" horiz-adv-x="1004" d="M466 315Q392 315 392 388Q392 495 427 559T511 662T605 725Q649 752 680 776T729 837T746 938Q746 1061 702 1106T534 1151H400Q277 1151 232 1105T187 938Q187 865 114 865Q40 865 40 938Q40
1120 129 1209T400 1298H534Q717 1298 805 1210T893 938Q893 831 858 767T774 665T681 601Q637 574 605 550T556 489T539 388Q539 315 466 315ZM444 0Q372 0 372 73V119Q372 190 444 190H489Q558 190 558 119V73Q558 0 489 0H444Z" />
<glyph unicode="@" glyph-name="at" horiz-adv-x="1468" d="M1270 64Q1169 -21 1023 -21H473Q310 -22 235 55T160 300V806Q160 975 235 1052T473 1127H993Q1160 1127 1234 1051T1308 804V427Q1308 330 1259 285T1103 240Q1042 240 1001 260T935 342Q893 279 832
258T695 236H681Q545 236 480 301T414 501V575Q414 716 479 781T679 846H761Q808 846 844 834T911 779Q919 821 933 833T963 846Q989 846 1007 828T1026 783V427Q1026 385 1037 376T1103 366Q1159 366 1170 376T1182 427V804Q1182 883 1166 925T1109 984T993 1001H473Q362
1003 324 964T286 806V300Q286 182 324 143T473 105H1023Q1080 105 1116 117T1189 161Q1204 175 1229 175Q1255 175 1273 157T1292 112Q1292 83 1270 64ZM540 501Q540 418 569 390T681 362H695Q803 362 851 396T900 501V573Q900 665 874 692T761 720H679Q596 720
568 693T540 575V501Z" />
<glyph unicode="A" glyph-name="A" horiz-adv-x="1298" d="M125 7Q55 35 83 104L566 1276Q591 1334 648 1334H653Q710 1331 731 1276L1219 104Q1247 35 1179 7Q1110 -20 1083 47L966 327H333L220 47Q192 -21 125 7ZM391 474H906L645 1101L391 474Z" />
<glyph unicode="B" glyph-name="B" horiz-adv-x="1311" d="M275 0Q201 0 201 74V1260Q201 1334 275 1334H797Q952 1334 1034 1253T1116 1020V966Q1116 824 1026 753Q1190 669 1190 432V366Q1190 186 1096 93T823 0H275ZM348 147H823Q940 147 991 198T1043 366V432Q1043
548 993 598T823 649H348V147ZM348 796H826Q905 796 937 841T969 966V1020Q969 1111 930 1149T797 1187H348V796Z" />
<glyph unicode="C" glyph-name="C" horiz-adv-x="1372" d="M598 0Q373 0 267 106T160 438V896Q160 1123 266 1229T596 1334H838Q1024 1334 1120 1257T1230 1012Q1235 975 1216 956T1160 936Q1093 936 1083 1010Q1074 1112 1018 1149T838 1187H596Q487 1187 424
1161T334 1071T307 896V438Q307 328 334 265T424 174T598 147H838Q962 147 1018 184T1083 324Q1093 398 1160 398Q1197 398 1216 379T1230 322Q1216 154 1120 77T838 0H598Z" />
<glyph unicode="D" glyph-name="D" horiz-adv-x="1414" d="M275 0Q201 0 201 74V1260Q201 1334 275 1334H757Q1014 1334 1134 1214T1254 836V498Q1254 241 1135 121T757 0H275ZM348 147H757Q887 147 964 180T1074 290T1107 498V836Q1107 966 1074 1043T964 1153T757
1187H348V147Z" />
<glyph unicode="E" glyph-name="E" horiz-adv-x="1178" d="M275 0Q201 0 201 74V1260Q201 1334 275 1334H1003Q1077 1334 1077 1260Q1077 1187 1003 1187H348V747H767Q841 747 841 674Q841 600 767 600H348V147H1003Q1077 147 1077 74Q1077 0 1003 0H275Z" />
<glyph unicode="F" glyph-name="F" horiz-adv-x="1079" d="M275 0Q201 0 201 74V1260Q201 1334 275 1334H1006Q1040 1334 1059 1315T1079 1260Q1079 1187 1006 1187H348V747H768Q842 747 842 674Q842 600 768 600H348V74Q348 0 275 0Z" />
<glyph unicode="G" glyph-name="G" horiz-adv-x="1376" d="M598 0Q373 0 267 106T160 438V896Q160 1123 266 1229T596 1334H838Q1024 1334 1120 1257T1230 1012Q1235 975 1216 956T1160 936Q1093 936 1083 1010Q1074 1112 1018 1149T838 1187H596Q487 1187 424
1161T334 1071T307 896V438Q307 328 334 265T424 174T598 147H838Q934 147 988 169T1065 245T1088 398V502L911 504Q838 504 838 578Q838 651 911 651L1162 649Q1235 649 1235 576V398Q1235 190 1140 95T838 0H598Z" />
<glyph unicode="H" glyph-name="H" horiz-adv-x="1520" d="M275 0Q245 0 223 22T201 74V1260Q201 1290 223 1312T275 1334Q305 1334 326 1312T348 1260V749H1172V1260Q1172 1290 1193 1312T1245 1334Q1275 1334 1297 1312T1319 1260V74Q1319 44 1297 22T1245 0Q1214
0 1193 22T1172 74V602H348V74Q348 44 327 22T275 0Z" />
<glyph unicode="I" glyph-name="I" horiz-adv-x="549" d="M275 0Q238 0 220 18T201 74V1259Q201 1297 219 1315T275 1333Q312 1333 330 1315T348 1259V74Q348 37 330 19T275 0Z" />
<glyph unicode="J" glyph-name="J" horiz-adv-x="1183" d="M456 0Q270 0 174 77T62 321Q59 357 78 377T134 398Q202 398 209 324Q220 222 275 185T456 147H594Q690 147 745 169T822 246T845 398V1260Q845 1334 918 1334Q992 1334 992 1260V398Q992 191 896 96T594 0H456Z" />
<glyph unicode="K" glyph-name="K" horiz-adv-x="1150" d="M275 0Q201 0 201 74V1260Q201 1334 275 1334Q348 1334 348 1260V752L886 1306Q937 1360 989 1308Q1043 1257 991 1204L558 758L1068 125Q1113 67 1058 22Q1001 -25 955 32L455 651L348 541V74Q348 0 275 0Z" />
<glyph unicode="L" glyph-name="L" horiz-adv-x="1055" d="M275 0Q201 0 201 74V1260Q201 1334 275 1334Q348 1334 348 1260V147H920Q994 147 994 74Q994 0 920 0H275Z" />
<glyph unicode="M" glyph-name="M" horiz-adv-x="1639" d="M275 0Q201 0 201 74V1260Q201 1334 275 1334Q324 1334 356 1286L837 559L805 554L1288 1286Q1318 1334 1377 1334Q1438 1334 1438 1260V74Q1438 0 1365 0Q1291 0 1291 74V1113L1336 1098L902 451Q870
404 813 404Q771 404 739 451L305 1098L348 1085V74Q348 0 275 0Z" />
<glyph unicode="N" glyph-name="N" horiz-adv-x="1479" d="M275 0Q201 0 201 74V1260Q201 1334 275 1334Q313 1334 349 1290L1167 237H1131V1260Q1131 1334 1205 1334Q1278 1334 1278 1260V74Q1278 0 1205 0Q1165 0 1131 44L312 1097H348V74Q348 0 275 0Z" />
<glyph unicode="O" glyph-name="O" horiz-adv-x="1435" d="M598 0Q373 0 267 106T160 438V898Q160 1125 266 1230T597 1334H838Q1063 1334 1169 1228T1275 896V438Q1275 213 1169 107T838 0H598ZM598 147H838Q947 147 1010 174T1101 264T1128 438V896Q1128 1005
1101 1068T1011 1159T838 1187H597Q488 1188 425 1162T335 1072T307 898V438Q307 328 334 265T424 174T598 147Z" />
<glyph unicode="P" glyph-name="P" horiz-adv-x="1191" d="M275 0Q201 0 201 74V1260Q201 1334 275 1334H743Q922 1334 1016 1240T1110 966V906Q1110 727 1016 633T743 539H348V74Q348 0 275 0ZM348 686H743Q861 686 912 737T963 906V966Q963 1084 912 1135T743
1187H348V686Z" />
<glyph unicode="Q" glyph-name="Q" horiz-adv-x="1443" d="M1264 -32Q1283 -52 1283 -75T1259 -120Q1215 -162 1169 -119L851 216Q830 237 830 260T852 304Q897 347 944 303L1264 -32ZM598 0Q373 0 267 106T160 438V898Q160 1125 266 1230T597 1334H838Q1063 1334
1169 1228T1275 896V438Q1275 213 1169 107T838 0H598ZM598 147H838Q947 147 1010 174T1101 264T1128 438V896Q1128 1005 1101 1068T1011 1159T838 1187H597Q488 1188 425 1162T335 1072T307 898V438Q307 328 334 265T424 174T598 147Z" />
<glyph unicode="R" glyph-name="R" horiz-adv-x="1229" d="M1073 -3Q1044 -22 1018 -15T973 21L657 539H348V74Q348 0 275 0Q201 0 201 74V1260Q201 1334 275 1334H743Q922 1334 1016 1240T1110 966V906Q1110 750 1038 658T827 545L1100 97Q1135 35 1073 -3ZM348
686H743Q861 686 912 737T963 906V966Q963 1084 912 1135T743 1187H348V686Z" />
<glyph unicode="S" glyph-name="S" horiz-adv-x="1365" d="M537 1Q364 1 272 73T161 299Q158 336 177 355T233 375Q269 375 286 357T309 303Q321 215 372 182T537 148H825Q959 148 1008 197T1058 378Q1058 511 1008 561T825 612H569Q384 612 296 701T207 974Q207
1158 294 1246T567 1334H819Q981 1334 1068 1266T1174 1054Q1178 1017 1159 998T1102 978Q1067 978 1049 996T1027 1050Q1015 1127 968 1157T819 1187H567Q443 1187 399 1142T354 974Q354 852 399 806T569 759H825Q1019 759 1112 666T1205 378Q1205 184 1112 93T825
1H537Z" />
<glyph unicode="T" glyph-name="T" horiz-adv-x="1197" d="M599 0Q563 0 544 18T525 73V1186H125Q89 1186 70 1204T51 1259Q51 1295 70 1314T125 1333H1073Q1109 1333 1127 1314T1146 1259Q1146 1223 1128 1205T1073 1186H672V73Q672 39 653 20T599 0Z" />
<glyph unicode="U" glyph-name="U" horiz-adv-x="1497" d="M629 0Q404 0 298 106T191 438V1260Q191 1296 210 1315T265 1334Q301 1334 319 1315T338 1260V438Q338 328 365 265T455 174T629 147H869Q978 147 1041 174T1132 264T1159 438V1260Q1159 1296 1178 1315T1233
1334Q1269 1334 1287 1315T1306 1260V438Q1306 213 1200 107T869 0H629Z" />
<glyph unicode="V" glyph-name="V" horiz-adv-x="1263" d="M623 0Q577 0 552 56L50 1229Q35 1262 44 1286T88 1325Q156 1355 184 1287L662 171H611L1080 1287Q1107 1355 1177 1325Q1209 1311 1218 1287T1215 1229L709 56Q683 0 632 0H623Z" />
<glyph unicode="W" glyph-name="W" horiz-adv-x="1764" d="M487 0Q438 0 418 62L44 1236Q33 1269 53 1302T114 1335Q135 1335 154 1322T182 1280L518 223H479L798 1272Q808 1303 831 1318T880 1334Q906 1334 931 1319T964 1272L1283 223H1244L1580 1280Q1590 1308
1607 1321T1647 1334Q1688 1334 1709 1304T1719 1236L1344 62Q1324 0 1267 0H1263Q1204 0 1186 62L857 1124H896L566 62Q557 29 539 15T487 0Z" />
<glyph unicode="X" glyph-name="X" horiz-adv-x="1219" d="M151 16Q92 57 133 119L511 675L127 1215Q87 1272 146 1318Q206 1359 248 1299L607 795L972 1299Q1017 1358 1074 1315Q1133 1271 1091 1213L697 668L1087 121Q1128 61 1068 16Q1008 -25 967 35L602 547L254
34Q213 -24 151 16Z" />
<glyph unicode="Y" glyph-name="Y" horiz-adv-x="1180" d="M582 0Q509 0 509 74V494L54 1217Q17 1279 77 1320Q140 1358 179 1297L582 652L1001 1297Q1020 1326 1046 1331T1101 1317Q1165 1278 1124 1217L656 494V74Q656 0 582 0Z" />
<glyph unicode="Z" glyph-name="Z" horiz-adv-x="1331" d="M196 0Q123 0 123 74Q123 88 130 103T153 141L964 1207V1187H412Q341 1187 302 1163T250 1085Q243 1052 226 1034T173 1016Q136 1016 116 1036T101 1093Q121 1210 199 1272T412 1334H1078Q1152 1334 1152
1260Q1152 1244 1146 1228T1123 1189L319 132V147H916Q991 147 1030 170T1080 249Q1089 282 1106 300T1158 318Q1195 318 1215 298T1230 241Q1189 0 916 0H196Z" />
<glyph unicode="[" glyph-name="bracketleft" horiz-adv-x="435" d="M184 -343Q121 -343 121 -280V1286Q121 1349 184 1349H352Q378 1349 396 1331T415 1286Q415 1261 397 1242T352 1223H247V-217H352Q378 -217 396 -235T415 -280Q415 -305 397 -324T352 -343H184Z" />
<glyph unicode="\" glyph-name="backslash" horiz-adv-x="657" d="M503 -295Q446 -295 431 -238L22 1355Q10 1397 30 1423T93 1450Q147 1450 164 1392L574 -201Q585 -242 565 -268T503 -295Z" />
<glyph unicode="]" glyph-name="bracketright" horiz-adv-x="435" d="M251 -343H83Q58 -343 39 -324T20 -280Q20 -254 39 -236T83 -217H188V1223H83Q58 1223 39 1242T20 1286Q20 1312 39 1330T83 1349H251Q314 1349 314 1286V-280Q314 -343 251 -343Z" />
<glyph unicode="^" glyph-name="asciicircum" horiz-adv-x="828" d="M284 855Q277 839 261 827T224 815Q199 815 180 834T161 878Q161 884 162 890T165 903L323 1310Q345 1359 397 1359H432Q484 1359 505 1310L663 903Q665 897 666 891T667 878Q667 853 649 834T604
815Q584 815 568 827T545 855L414 1194L284 855Z" />
<glyph unicode="_" glyph-name="underscore" horiz-adv-x="913" d="M174 -146Q100 -146 100 -73Q100 1 174 1H680Q753 1 753 -73Q753 -146 680 -146H174Z" />
<glyph unicode="`" glyph-name="grave" horiz-adv-x="492" d="M365 1046Q313 1004 274 1054L119 1239Q77 1290 127 1330Q177 1373 218 1323L373 1138Q414 1087 365 1046Z" />
<glyph unicode="a" glyph-name="a" horiz-adv-x="1266" d="M503 0Q339 0 260 79T181 322Q181 486 259 565T503 644H936Q932 758 880 801T703 844H587Q478 844 426 826T355 763Q341 727 325 713T274 698Q237 698 217 718T204 773Q228 886 322 938T587 991H703Q898
991 991 898T1084 610V74Q1084 0 1011 0Q937 0 937 74V137Q834 0 615 0H503ZM503 147H615Q696 147 764 163T878 219T937 331V497H503Q400 497 364 461T328 322Q328 219 364 183T503 147Z" />
<glyph unicode="b" glyph-name="b" horiz-adv-x="1288" d="M275 0Q201 0 201 74V1328Q201 1401 275 1401Q348 1401 348 1328V873Q398 932 477 962T671 992H747Q942 992 1035 899T1128 610V382Q1128 187 1035 94T747 0H671Q557 0 478 30T348 118V74Q348 0 275 0ZM671
147H747Q882 147 931 197T981 382V610Q981 745 931 795T747 845H671Q531 845 440 806T348 687V304Q349 225 440 186T671 147Z" />
<glyph unicode="c" glyph-name="c" horiz-adv-x="1182" d="M542 0Q347 0 254 93T160 382V612Q160 807 252 900T542 991H706Q854 991 937 941T1041 787Q1048 750 1028 730T969 710Q935 710 919 727T891 777Q877 814 835 829T706 844H542Q408 846 358 797T307 612V382Q307
247 357 197T542 147H706Q792 147 834 162T891 215Q903 248 919 265T970 282Q1007 282 1027 262T1041 205Q1020 101 937 51T706 0H542Z" />
<glyph unicode="d" glyph-name="d" horiz-adv-x="1269" d="M542 0Q347 0 254 93T160 382V610Q160 805 253 898T542 991H940V1328Q940 1401 1014 1401Q1087 1401 1087 1328V74Q1087 0 1014 0Q940 0 940 74V112Q894 57 816 29T618 0H542ZM542 147H618Q758 147 849
186T940 305V844H542Q407 844 357 794T307 610V382Q307 247 357 197T542 147Z" />
<glyph unicode="e" glyph-name="e" horiz-adv-x="1247" d="M307 436V380Q307 247 357 197T542 147H706Q816 147 867 170T934 253Q942 286 959 304T1012 322Q1049 322 1068 303T1081 246Q1062 121 969 61T706 0H542Q347 0 254 93T160 380V610Q160 808 253 900T542
991H706Q901 991 994 899T1087 610V510Q1087 436 1014 436H307ZM542 844Q407 846 357 796T307 610V583H940V610Q940 745 891 794T706 844H542Z" />
<glyph unicode="f" glyph-name="f" horiz-adv-x="734" d="M306 0Q232 0 232 74V844H155Q81 844 81 918Q81 991 155 991H232V1026Q232 1218 324 1309T608 1401Q673 1401 673 1328Q673 1254 608 1254Q477 1254 428 1206T379 1026V991H599Q673 991 673 918Q673 844
599 844H379V74Q379 0 306 0Z" />
<glyph unicode="g" glyph-name="g" horiz-adv-x="1269" d="M438 -400Q318 -400 251 -351T167 -201Q161 -164 180 -143T238 -122Q272 -122 288 -140T314 -194Q324 -228 352 -240T438 -253H810Q889 -253 914 -227T940 -122V128Q889 66 808 33T618 0H542Q347 0 254
93T160 380V610Q160 807 252 899T542 991H706Q786 991 844 969T940 899V918Q940 991 1014 991Q1087 991 1087 918V-122Q1087 -264 1020 -332T810 -400H438ZM542 147H618Q758 147 849 185T940 305V683Q940 775 880 809T706 844H542Q408 844 358 795T307 610V380Q307
248 357 198T542 147Z" />
<glyph unicode="h" glyph-name="h" horiz-adv-x="1290" d="M275 0Q201 0 201 74V1328Q201 1401 275 1401Q348 1401 348 1328V864Q450 991 671 991H727Q922 991 1015 898T1108 610V74Q1108 0 1035 0Q961 0 961 74V610Q961 745 911 794T727 844H671Q539 844 450
810T348 701V74Q348 0 275 0Z" />
<glyph unicode="i" glyph-name="i" horiz-adv-x="549" d="M248 1161Q162 1161 162 1249V1303Q162 1389 248 1389H302Q385 1389 385 1303V1249Q385 1161 302 1161H248ZM275 0Q201 0 201 74V918Q201 991 275 991Q348 991 348 918V74Q348 0 275 0Z" />
<glyph unicode="j" glyph-name="j" horiz-adv-x="549" d="M250 1161Q164 1161 164 1249V1303Q164 1389 250 1389H304Q387 1389 387 1303V1249Q387 1161 304 1161H250ZM55 -400Q18 -400 0 -381T-18 -326Q-18 -290 1 -272T55 -253Q141 -253 171 -223T201 -106V918Q201
991 275 991Q348 991 348 918V-106Q348 -256 277 -328T55 -400Z" />
<glyph unicode="k" glyph-name="k" horiz-adv-x="997" d="M275 0Q201 0 201 74V1328Q201 1401 275 1401Q348 1401 348 1328V550L835 968Q890 1016 938 961Q986 905 931 858L565 542L931 126Q980 70 925 23Q870 -25 821 30L452 445L348 355V74Q348 0 275 0Z" />
<glyph unicode="l" glyph-name="l" horiz-adv-x="652" d="M494 0Q345 0 273 72T201 294V1328Q201 1401 275 1401Q348 1401 348 1328V294Q348 207 377 177T494 147Q569 147 569 74Q571 0 494 0Z" />
<glyph unicode="m" glyph-name="m" horiz-adv-x="1812" d="M1294 992Q1474 992 1552 905T1630 618V73Q1630 0 1557 0Q1483 0 1483 73V618Q1483 738 1439 791T1294 845H1212Q1092 845 1041 792T989 618V73Q989 0 916 0Q842 0 842 73V618Q842 738 798 791T653 845H571Q451
845 400 792T348 618V73Q348 0 275 0Q201 0 201 73V918Q201 991 275 991Q348 991 348 918V861Q398 931 460 961T613 992H653Q771 992 839 957T945 842Q995 923 1056 957T1212 992H1294Z" />
<glyph unicode="n" glyph-name="n" horiz-adv-x="1290" d="M275 0Q201 0 201 74V918Q201 991 275 991Q348 991 348 918V864Q450 991 671 991H727Q922 991 1015 898T1108 610V74Q1108 0 1035 0Q961 0 961 74V610Q961 745 911 794T727 844H671Q539 844 450 810T348
701V74Q348 0 275 0Z" />
<glyph unicode="o" glyph-name="o" horiz-adv-x="1247" d="M542 0Q347 0 254 93T160 380V610Q160 807 253 899T542 991H706Q901 991 994 898T1087 610V382Q1087 187 994 94T706 0H542ZM307 380Q307 247 357 197T542 147H706Q841 147 890 197T940 382V610Q940 745
891 794T706 844H542Q452 844 401 823T329 751T307 610V380Z" />
<glyph unicode="p" glyph-name="p" horiz-adv-x="1288" d="M275 -400Q201 -400 201 -326V918Q201 991 275 991Q348 991 348 918V871Q399 931 480 961T671 991H747Q942 991 1035 898T1128 610V382Q1128 187 1035 94T747 0H348V-326Q348 -400 275 -400ZM348 147H747Q882
147 931 197T981 382V610Q981 745 932 794T747 844H671Q534 844 445 808T348 693V147Z" />
<glyph unicode="q" glyph-name="q" horiz-adv-x="1269" d="M1014 -400Q940 -400 940 -326V0H542Q347 0 254 93T160 382V610Q160 805 253 898T542 991H618Q737 991 816 960T940 869V918Q940 991 1014 991Q1087 991 1087 918V-326Q1087 -400 1014 -400ZM542 147H940V685Q940
766 849 805T618 844H542Q407 844 357 795T307 610V382Q307 247 357 197T542 147Z" />
<glyph unicode="r" glyph-name="r" horiz-adv-x="821" d="M275 0Q201 0 201 74V918Q201 991 275 991Q348 991 348 918V814Q405 901 498 946T716 991Q790 991 790 918Q790 844 716 844Q541 844 448 775T348 585V74Q348 0 275 0Z" />
<glyph unicode="s" glyph-name="s" horiz-adv-x="1187" d="M429 1Q303 1 232 53T143 212Q137 248 157 269T215 290Q250 290 266 272T293 218Q304 177 335 163T429 148H757Q840 148 869 176T899 290Q899 375 870 404T757 433H434Q295 433 225 502T155 711Q155 853
223 922T434 992H747Q979 992 1016 793Q1022 756 1002 736T944 716Q910 716 893 734T867 785Q857 820 830 832T747 845H434Q354 845 328 819T302 711Q302 635 329 608T434 580H757Q903 580 974 508T1046 290Q1046 144 975 73T757 1H429Z" />
<glyph unicode="t" glyph-name="t" horiz-adv-x="798" d="M615 0Q422 0 331 91T240 374V844H135Q61 844 61 918Q61 991 135 991H240V1160Q240 1234 313 1234Q387 1234 387 1160V991H624Q697 991 697 918Q697 844 624 844H387V374Q387 242 435 195T615 147Q651
147 670 130T689 74Q689 0 615 0Z" />
<glyph unicode="u" glyph-name="u" horiz-adv-x="1290" d="M1015 991Q1089 991 1089 918V74Q1089 0 1015 0Q942 0 942 74V127Q839 0 619 0H563Q368 0 275 93T182 382V918Q182 991 255 991Q329 991 329 918V382Q329 247 379 197T563 147H619Q751 147 840 182T942
291V918Q942 991 1015 991Z" />
<glyph unicode="v" glyph-name="v" horiz-adv-x="1035" d="M586 55Q574 26 553 13T501 0Q444 0 420 58L70 887Q39 956 109 983Q174 1013 205 944L540 151H467L830 947Q845 977 870 987T928 983Q994 952 964 885L586 55Z" />
<glyph unicode="w" glyph-name="w" horiz-adv-x="1468" d="M425 0Q365 0 346 60L66 894Q43 962 113 986Q182 1009 206 939L448 222H425L654 934Q674 992 738 992Q800 992 817 931L1032 228H1012L1262 940Q1288 1011 1356 986Q1426 961 1400 891L1095 60Q1073 0
1011 0Q947 0 929 61L716 762H737L504 60Q495 29 474 15T425 0Z" />
<glyph unicode="x" glyph-name="x" horiz-adv-x="1041" d="M137 18Q79 63 122 122L424 532L164 870Q117 927 177 972Q234 1018 279 960L527 638L777 960Q821 1020 880 973Q938 929 894 870L619 518L924 123Q967 64 912 20Q852 -27 808 33L517 410L240 35Q195 -26 137 18Z" />
<glyph unicode="y" glyph-name="y" horiz-adv-x="1312" d="M459 -400Q319 -400 251 -331T182 -120Q182 -47 255 -47Q329 -47 329 -120Q329 -200 354 -226T459 -253H833Q912 -253 938 -227T964 -120V141Q905 56 823 28T641 0H557Q364 0 273 91T182 373V918Q182
992 255 992Q329 992 329 918V373Q329 243 377 195T557 147H641Q809 147 886 203T964 373V918Q964 992 1037 992Q1111 992 1111 918V-120Q1111 -261 1042 -330T833 -400H459Z" />
<glyph unicode="z" glyph-name="z" horiz-adv-x="1071" d="M204 0Q130 0 130 74Q130 108 162 147L750 879L766 844H363Q306 844 278 832T239 784Q231 750 215 732T164 714Q126 714 106 734T92 791Q109 893 176 942T363 991H853Q926 991 926 918Q926 881 895 843L317
121L290 149L727 147Q781 147 809 161T849 209Q860 242 876 260T926 278Q964 278 984 258T998 201Q960 0 727 0H204Z" />
<glyph unicode="{" glyph-name="braceleft" horiz-adv-x="695" d="M612 -343Q431 -343 356 -263T281 8V347L170 389Q121 411 121 463V522Q121 573 170 595L281 639V978Q281 1107 311 1189T413 1310T605 1349Q637 1349 656 1332T675 1287Q675 1259 657 1242T612
1223Q557 1222 518 1215T455 1184T419 1112T407 978V607Q407 550 359 533L199 477V507L358 453Q407 436 407 380V8Q407 -89 423 -136T484 -199T612 -217Q640 -217 657 -235T675 -280Q675 -305 657 -324T612 -343Z" />
<glyph unicode="|" glyph-name="bar" horiz-adv-x="467" d="M307 -240Q307 -313 234 -313Q160 -313 160 -240V1348Q160 1421 234 1421Q307 1421 307 1348V-240Z" />
<glyph unicode="}" glyph-name="braceright" horiz-adv-x="695" d="M83 -343Q58 -343 39 -324T20 -280Q20 -254 38 -236T83 -217Q167 -215 211 -200T271 -137T288 8V380Q288 436 337 453L496 507V477L337 533Q288 550 288 607V978Q288 1063 277 1111T241 1183T177
1214T83 1223Q58 1224 39 1241T20 1287Q20 1314 40 1331T91 1349Q212 1349 282 1310T383 1189T414 978V639L526 595Q574 573 574 522V463Q574 411 525 389L414 347V8Q414 -182 340 -262T83 -343Z" />
<glyph unicode="~" glyph-name="asciitilde" horiz-adv-x="1186" d="M270 546Q252 526 227 526Q202 526 186 542T168 582T182 624Q230 679 266 709T336 751T418 763Q482 763 528 745T612 704T684 663T762 645Q803 645 835 665T914 741Q934 763 961 763Q997 763
1012 729T1005 666Q945 593 888 560T762 526Q699 526 657 544T581 585T509 626T418 644Q391 644 372 638T331 611T270 546Z" />
<glyph unicode="&#xa0;" glyph-name="uni00A0" horiz-adv-x="586" />
<glyph unicode="&#xa1;" glyph-name="exclamdown" horiz-adv-x="509" d="M253 773Q326 773 326 699V-287Q326 -361 253 -361Q179 -361 179 -287V699Q179 773 253 773ZM275 1042Q348 1042 348 969V923Q348 852 275 852H231Q161 852 161 923V969Q161 1042 231 1042H275Z" />
<glyph unicode="&#xa2;" glyph-name="cent" horiz-adv-x="1043" d="M494 109Q314 109 227 194T140 458V624Q140 805 226 891T494 976H606Q765 976 844 913T923 714Q923 684 902 663T850 641Q820 641 798 662T776 714Q776 779 743 804T606 829H494Q374 831 331
787T287 624V458Q287 342 330 299T494 256H606Q709 256 742 280T776 370Q776 401 798 422T850 444Q880 444 901 423T923 370Q923 236 844 173T606 109H494ZM550 -63Q487 -63 487 0V1082Q487 1145 550 1145Q613 1145 613 1082V0Q613 -63 550 -63Z" />
<glyph unicode="&#xa3;" glyph-name="sterling" horiz-adv-x="1186" d="M91 0V147Q150 147 170 177T191 293V860Q191 1087 297 1192T627 1298H669Q875 1298 970 1203T1066 900Q1066 827 993 827Q919 827 919 900Q919 998 897 1052T820 1129T669 1151H627Q518 1151
456 1125T366 1035T338 860V293Q338 250 333 214T313 147H1033Q1106 147 1106 74Q1106 0 1033 0H91ZM80 424Q17 424 17 487Q17 550 80 550H710Q773 550 773 487Q773 424 710 424H80Z" />
<glyph unicode="&#xa4;" glyph-name="currency" horiz-adv-x="1209" d="M258 253Q228 253 206 274T184 326Q184 355 205 379L300 472Q268 520 250 576T232 694Q232 756 250 811T300 914L208 1008Q186 1031 186 1061Q186 1091 207 1112T259 1134Q291 1134 312 1112L404
1019Q451 1050 507 1068T624 1086Q686 1086 742 1068T845 1019L940 1114Q961 1135 991 1135Q1022 1135 1043 1114T1065 1062Q1065 1032 1044 1011L949 915Q981 868 999 812T1017 694Q1017 633 1000 577T950 473L1044 377Q1065 356 1065 326Q1065 296 1044 275T992
253Q962 253 939 275L847 369Q799 337 743 319T624 301Q562 301 507 318T404 368L310 274Q287 253 258 253ZM624 448Q692 448 748 481T837 569T870 694Q870 762 837 817T748 906T624 939Q556 939 501 906T412 818T379 694Q379 625 412 570T500 481T624 448Z" />
<glyph unicode="&#xa5;" glyph-name="yen" horiz-adv-x="1182" d="M663 74Q663 0 590 0Q516 0 516 74V490L55 1215Q16 1276 78 1317Q137 1359 178 1294L640 557H541L1001 1297Q1040 1360 1104 1320Q1162 1278 1127 1217L663 490V74ZM312 423Q287 423 274 436T260
476Q260 502 273 515T312 528H865Q891 528 904 515T917 476Q917 450 904 437T865 423H312ZM312 241Q287 241 274 254T260 294Q260 320 273 333T312 346H865Q891 346 904 333T917 294Q917 268 904 255T865 241H312Z" />
<glyph unicode="&#xa6;" glyph-name="brokenbar" horiz-adv-x="467" d="M307 -240Q307 -270 286 -291T234 -313Q204 -313 182 -292T160 -240V334Q160 365 182 386T234 408Q264 408 285 387T307 334V-240ZM307 778Q307 748 286 727T234 705Q204 705 182 726T160
778V1348Q160 1379 182 1400T234 1422Q264 1422 285 1401T307 1348V778Z" />
<glyph unicode="&#xa7;" glyph-name="section" horiz-adv-x="1126" d="M946 564Q946 437 876 372T671 306Q642 306 622 314T602 334Q602 363 622 383T671 403Q746 403 777 438T808 564Q808 635 778 671T660 739L462 809Q343 850 286 918T228 1092Q228 1201 294
1257T483 1313H679Q930 1313 930 1060Q930 1032 910 1012T861 991Q833 991 813 1011T792 1060Q792 1129 769 1152T679 1175H483Q415 1175 391 1157T366 1092Q366 1034 396 1001T506 940L704 870Q833 824 889 753T946 564ZM453 -171Q309 -171 239 -101T168 114Q168
143 188 163T237 183Q266 183 286 163T306 114Q306 28 336 -2T453 -33H681Q768 -33 798 -3T828 114Q828 154 818 178T772 221T662 265L414 345Q275 389 218 459T160 656Q160 786 232 848T453 911L522 882Q522 853 502 833T453 813Q364 813 331 780T298 656Q298
603 310 571T356 518T454 476L702 396Q803 363 861 327T942 241T966 114Q966 -30 896 -100T681 -171H453Z" />
<glyph unicode="&#xa8;" glyph-name="dieresis" horiz-adv-x="709" d="M171 1146Q98 1146 98 1219V1265Q98 1336 171 1336H215Q285 1336 285 1265V1219Q285 1146 215 1146H171ZM493 1146Q420 1146 420 1219V1265Q420 1336 493 1336H537Q607 1336 607 1265V1219Q607
1146 537 1146H493Z" />
<glyph unicode="&#xa9;" glyph-name="copyright" horiz-adv-x="1622" d="M1462 661Q1462 472 1378 325T1147 95T811 11Q622 11 475 94T244 325T160 661Q160 850 244 997T475 1228T811 1313Q1000 1313 1147 1229T1378 997T1462 661ZM286 661Q286 506 353 388T538
204T811 137Q966 137 1084 203T1269 388T1336 661Q1336 816 1270 934T1085 1120T811 1187Q656 1187 538 1120T353 935T286 661ZM767 290Q622 290 551 360T480 575V741Q480 889 551 958T767 1028H863Q971 1028 1035 993T1116 882Q1122 852 1106 834T1053 816Q1023
816 1012 830T985 870Q973 888 945 895T863 902H767Q674 902 640 870T606 741V575Q606 483 639 450T767 416H863Q916 416 945 424T985 448Q1000 474 1011 489T1053 504Q1088 504 1106 486T1116 436Q1097 363 1034 327T863 290H767Z" />
<glyph unicode="&#xaa;" glyph-name="ordfeminine" horiz-adv-x="919" d="M354 607Q237 607 179 665T121 839Q121 958 179 1015T354 1073H666Q663 1143 633 1168T524 1194H412Q352 1194 319 1188T275 1162Q251 1127 240 1118T203 1108Q170 1108 152 1126T142 1178Q181
1324 412 1324H524Q663 1324 730 1257T798 1050V671Q798 607 732 607Q667 607 667 671V701Q605 607 464 607H354ZM354 737H464Q552 737 609 755T667 817V943H354Q292 943 272 923T252 839Q252 778 272 758T354 737Z" />
<glyph unicode="&#xab;" glyph-name="guillemotleft" horiz-adv-x="1311" d="M1068 221Q1043 221 1028 236L656 543Q600 588 656 633L1028 941Q1043 955 1068 955Q1094 955 1112 937T1131 892Q1131 878 1124 866T1106 844L797 588L1106 333Q1117 324 1124 312T1131
284Q1131 259 1113 240T1068 221ZM620 221Q595 221 580 236L208 543Q152 588 208 633L580 941Q595 955 620 955Q646 955 664 937T683 892Q683 878 676 866T658 844L349 588L658 333Q669 324 676 312T683 284Q683 259 665 240T620 221Z" />
<glyph unicode="&#xac;" glyph-name="logicalnot" horiz-adv-x="1186" d="M1022 474Q1022 450 1004 433T962 415Q938 415 921 432T903 474V646H225Q201 646 184 663T166 704Q166 729 183 746T225 763H962Q1022 763 1022 704V474Z" />
<glyph unicode="&#xad;" glyph-name="uni00AD" horiz-adv-x="1000" d="M224 477Q199 477 180 496T161 540Q161 566 180 584T224 603H776Q802 603 820 585T839 540Q839 515 821 496T776 477H224Z" />
<glyph unicode="&#xae;" glyph-name="registered" horiz-adv-x="1622" d="M1462 662Q1462 472 1378 326T1147 95T811 11Q622 11 475 95T244 325T160 662Q160 851 244 998T475 1229T811 1313Q1000 1313 1147 1229T1378 998T1462 662ZM286 662Q286 507 353 389T538
204T811 137Q966 137 1084 204T1269 389T1336 662Q1336 816 1270 934T1085 1120T811 1187Q656 1187 538 1120T353 935T286 662ZM699 380Q699 317 636 317Q573 317 573 380V966Q573 1029 636 1029H828Q929 1029 984 974T1039 818V788Q1039 643 933 595L1037 411Q1067
353 1010 325Q956 298 924 352L801 575H699V380ZM699 701H828Q875 701 894 720T913 788V818Q913 866 894 884T828 903H699V701Z" />
<glyph unicode="&#xaf;" glyph-name="overscore" horiz-adv-x="853" d="M174 1137Q100 1137 100 1210Q100 1284 174 1284H680Q753 1284 753 1210Q753 1137 680 1137H174Z" />
<glyph unicode="&#xb0;" glyph-name="degree" horiz-adv-x="571" d="M263 882Q185 882 143 924T100 1044V1188Q100 1267 142 1309T263 1351H309Q387 1351 429 1309T471 1188V1044Q471 967 429 925T309 882H263ZM205 1044Q205 1012 217 1000T263 987H309Q342 987
354 999T366 1044V1188Q366 1222 354 1234T309 1246H263Q230 1246 218 1234T205 1188V1044Z" />
<glyph unicode="&#xb1;" glyph-name="plusminus" horiz-adv-x="1186" d="M535 977Q535 1008 551 1024T598 1040Q629 1040 645 1024T661 977V436Q661 406 645 390T598 373Q568 373 552 389T535 436V977ZM224 650Q161 650 161 713Q161 776 224 776H962Q1025 776
1025 713Q1025 650 962 650H224ZM224 198Q161 198 161 261Q161 324 224 324H962Q1025 324 1025 261Q1025 198 962 198H224Z" />
<glyph unicode="&#xb2;" glyph-name="uni00B2" horiz-adv-x="735" d="M554 607H188Q156 607 137 624T117 676Q117 770 151 829T236 925T337 993Q414 1040 442 1062T471 1124Q471 1165 461 1176T408 1187H308Q282 1187 267 1184T243 1170Q219 1135 206 1123T166
1110Q132 1110 113 1129T100 1184Q135 1325 308 1325H408Q609 1325 609 1124Q609 1056 580 1012T505 937T411 876Q353 841 317 814T265 745H554Q624 745 624 676Q624 607 554 607Z" />
<glyph unicode="&#xb3;" glyph-name="uni00B3" horiz-adv-x="786" d="M334 611Q155 611 122 755Q115 791 134 810T188 829Q219 829 229 817T263 768Q271 757 288 753T334 749H444Q497 749 511 764T526 829Q526 881 512 895T444 909H396Q327 909 327 980Q327 1049
396 1049H444Q664 1049 664 829Q664 611 444 611H334ZM438 978V1049Q480 1049 496 1068T512 1118Q512 1166 499 1178T440 1191H338Q314 1191 300 1188T278 1176Q258 1151 246 1135T204 1118Q163 1118 145 1137T134 1190Q166 1329 338 1329H440Q545 1329 597 1279T650
1139Q650 1065 598 1022T438 978Z" />
<glyph unicode="&#xb4;" glyph-name="acute" horiz-adv-x="487" d="M122 1046Q73 1087 115 1138L269 1323Q311 1373 361 1330Q410 1290 368 1239L214 1054Q174 1004 122 1046Z" />
<glyph unicode="&#xb5;" glyph-name="uni00B5" horiz-adv-x="1356" d="M1089 256Q1089 189 1110 168T1199 147Q1239 148 1256 131T1274 74Q1274 -1 1198 0Q1116 1 1062 35T972 127Q919 66 831 32T619 -2H563Q486 -2 428 25T329 113V-89Q329 -134 310 -159T255
-184Q182 -184 182 -110V918Q182 991 255 991Q329 991 329 918V379Q329 245 379 195T563 145H619Q759 145 850 182T942 304V918Q942 991 1015 991Q1089 991 1089 918V256Z" />
<glyph unicode="&#xb6;" glyph-name="paragraph" horiz-adv-x="1124" d="M663 -326Q663 -351 645 -370T600 -389Q575 -389 556 -370T537 -326V559H428Q259 559 170 647T81 904V962Q81 1132 170 1220T428 1309H860Q923 1309 923 1246V-326Q923 -351 905 -370T860
-389Q835 -389 816 -370T797 -326V1183H663V-326Z" />
<glyph unicode="&#xb7;" glyph-name="middot" horiz-adv-x="509" d="M234 500Q161 500 161 573V619Q161 690 234 690H278Q348 690 348 619V573Q348 500 278 500H234Z" />
<glyph unicode="&#xb8;" glyph-name="cedilla" horiz-adv-x="614" d="M287 -421Q100 -421 100 -234Q100 -171 163 -171Q226 -171 226 -234Q226 -273 237 -284T287 -295Q349 -295 368 -276T388 -194Q388 -178 381 -168T345 -138Q327 -127 303 -107T260 -53T242
30Q242 93 305 93Q368 93 368 30Q368 10 376 -2T415 -35Q442 -53 478 -88T514 -194Q514 -308 458 -364T287 -421Z" />
<glyph unicode="&#xb9;" glyph-name="uni00B9" horiz-adv-x="606" d="M373 607Q299 607 299 680V1111L332 1124L246 1039Q195 988 143 1041Q91 1095 144 1144L300 1297Q324 1320 343 1327T391 1334Q446 1334 446 1281V680Q446 607 373 607Z" />
<glyph unicode="&#xba;" glyph-name="ordmasculine" horiz-adv-x="853" d="M361 607Q220 607 150 677T79 888V1016Q79 1159 149 1228T361 1297H493Q634 1297 704 1227T774 1016V890Q774 747 704 677T493 607H361ZM361 754H493Q574 754 600 781T627 890V1016Q627
1095 601 1122T493 1150H361Q280 1150 253 1124T226 1016V888Q226 808 253 781T361 754Z" />
<glyph unicode="&#xbb;" glyph-name="guillemotright" horiz-adv-x="1307" d="M687 221Q662 221 643 240T624 284Q624 300 631 312T649 333L958 588L649 844Q638 853 631 865T624 892Q624 918 643 936T687 955Q712 955 727 941L1099 633Q1156 588 1099 543L727
236Q712 221 687 221ZM244 221Q219 221 200 240T181 284Q181 300 188 312T206 333L515 588L206 844Q195 853 188 865T181 892Q181 918 200 936T244 955Q268 955 284 941L656 633Q712 588 656 543L284 236Q268 221 244 221Z" />
<glyph unicode="&#xbc;" glyph-name="onequarter" horiz-adv-x="1584" d="M373 607Q299 607 299 680V1111L332 1124L246 1039Q195 988 143 1041Q91 1095 144 1144L300 1297Q324 1320 343 1327T391 1334Q446 1334 446 1281V680Q446 607 373 607ZM339 -29Q309 -29
287 -8T265 44Q265 57 269 69T279 90L1201 1310Q1224 1340 1261 1340Q1291 1340 1312 1319T1334 1266Q1334 1255 1331 1243T1320 1221L398 1Q375 -29 339 -29ZM1303 5Q1234 5 1234 74L1238 585L1291 565L992 207L980 279H1439Q1508 279 1508 209Q1508 140 1439
140H939Q870 140 870 209Q870 241 899 279L1232 689Q1249 710 1268 721T1315 732Q1376 732 1376 663L1372 74Q1372 5 1303 5Z" />
<glyph unicode="&#xbd;" glyph-name="onehalf" horiz-adv-x="1619" d="M373 607Q299 607 299 680V1111L332 1124L246 1039Q195 988 143 1041Q91 1095 144 1144L300 1297Q324 1320 343 1327T391 1334Q446 1334 446 1281V680Q446 607 373 607ZM339 -29Q309 -29 287
-8T265 44Q265 57 269 69T279 90L1201 1310Q1224 1340 1261 1340Q1291 1340 1312 1319T1334 1266Q1334 1255 1331 1243T1320 1221L398 1Q375 -29 339 -29ZM1428 1H1062Q1030 1 1011 18T991 70Q991 164 1025 223T1110 319T1211 387Q1288 434 1316 456T1345 518Q1345
559 1335 570T1282 581H1182Q1156 581 1141 578T1117 564Q1093 529 1080 517T1040 504Q1006 504 987 523T974 578Q1009 719 1182 719H1282Q1483 719 1483 518Q1483 450 1454 406T1379 331T1285 270Q1227 235 1191 208T1139 139H1428Q1498 139 1498 70Q1498 1 1428
1Z" />
<glyph unicode="&#xbe;" glyph-name="threequarters" horiz-adv-x="1766" d="M334 611Q155 611 122 755Q115 791 134 810T188 829Q219 829 229 817T263 768Q271 757 288 753T334 749H444Q497 749 511 764T526 829Q526 881 512 895T444 909H396Q327 909 327 980Q327
1049 396 1049H444Q664 1049 664 829Q664 611 444 611H334ZM438 978V1049Q480 1049 496 1068T512 1118Q512 1166 499 1178T440 1191H338Q314 1191 300 1188T278 1176Q258 1151 246 1135T204 1118Q163 1118 145 1137T134 1190Q166 1329 338 1329H440Q545 1329 597
1279T650 1139Q650 1065 598 1022T438 978ZM519 -29Q489 -29 467 -8T445 44Q445 57 449 69T459 90L1381 1310Q1404 1340 1441 1340Q1471 1340 1492 1319T1514 1266Q1514 1255 1511 1243T1500 1221L578 1Q555 -29 519 -29ZM1485 5Q1416 5 1416 74L1420 585L1473
565L1174 207L1162 279H1621Q1690 279 1690 209Q1690 140 1621 140H1121Q1052 140 1052 209Q1052 241 1081 279L1414 689Q1431 710 1450 721T1497 732Q1558 732 1558 663L1554 74Q1554 5 1485 5Z" />
<glyph unicode="&#xbf;" glyph-name="questiondown" horiz-adv-x="1004" d="M548 706Q621 706 621 632Q621 525 586 461T502 359T409 295Q365 268 333 244T284 183T267 82Q267 -40 312 -85T480 -130H614Q737 -130 781 -84T826 82Q826 156 900 156Q973 156 973
82Q973 -100 885 -188T614 -277H480Q297 -277 209 -189T120 82Q120 189 155 253T239 356T333 419Q377 446 408 470T457 531T474 632Q474 706 548 706ZM569 1020Q642 1020 642 947V901Q642 830 569 830H525Q455 830 455 901V947Q455 1020 525 1020H569Z" />
<glyph unicode="&#xc0;" glyph-name="Agrave" horiz-adv-x="1298" d="M125 7Q55 35 83 104L566 1276Q591 1334 648 1334H653Q710 1331 731 1276L1219 104Q1247 35 1179 7Q1110 -20 1083 47L966 327H333L220 47Q192 -21 125 7ZM391 474H906L645 1101L391 474ZM730
1431Q678 1389 639 1439L484 1624Q442 1675 492 1715Q542 1758 583 1708L738 1523Q779 1472 730 1431Z" />
<glyph unicode="&#xc1;" glyph-name="Aacute" horiz-adv-x="1298" d="M635 1431Q586 1472 627 1522L782 1707Q823 1757 873 1715Q923 1675 881 1623L726 1438Q687 1388 635 1431ZM125 7Q55 35 83 104L566 1276Q591 1334 648 1334H653Q710 1331 731 1276L1219 104Q1247
35 1179 7Q1110 -20 1083 47L966 327H333L220 47Q192 -21 125 7ZM391 474H906L645 1101L391 474Z" />
<glyph unicode="&#xc2;" glyph-name="Acircumflex" horiz-adv-x="1298" d="M125 7Q55 35 83 104L566 1276Q591 1334 648 1334H653Q710 1331 731 1276L1219 104Q1247 35 1179 7Q1110 -20 1083 47L966 327H333L220 47Q192 -21 125 7ZM391 474H906L645 1101L391 474ZM408
1428Q380 1428 360 1447T340 1495Q340 1532 371 1553L560 1709Q597 1741 643 1741H655Q701 1741 738 1709L928 1553Q959 1531 959 1495Q959 1467 939 1448T892 1428Q864 1428 843 1448L653 1606H645L457 1448Q435 1428 408 1428Z" />
<glyph unicode="&#xc3;" glyph-name="Atilde" horiz-adv-x="1298" d="M125 7Q55 35 83 104L566 1276Q591 1334 648 1334H653Q710 1331 731 1276L1219 104Q1247 35 1179 7Q1110 -20 1083 47L966 327H333L220 47Q192 -21 125 7ZM391 474H906L645 1101L391 474ZM788
1462Q725 1462 688 1490T628 1541Q604 1566 589 1576T550 1587Q509 1587 493 1563T468 1516Q457 1492 441 1478T389 1475Q353 1486 348 1508T352 1553Q378 1626 428 1667T548 1708Q614 1708 653 1679T715 1626Q741 1601 754 1593T787 1585Q816 1585 829 1599T855
1645Q867 1673 883 1686T932 1692Q972 1682 975 1658T973 1615Q948 1542 902 1502T788 1462Z" />
<glyph unicode="&#xc4;" glyph-name="Adieresis" horiz-adv-x="1298" d="M125 7Q55 35 83 104L566 1276Q591 1334 648 1334H653Q710 1331 731 1276L1219 104Q1247 35 1179 7Q1110 -20 1083 47L966 327H333L220 47Q192 -21 125 7ZM391 474H906L645 1101L391 474ZM470
1489Q397 1489 397 1562V1608Q397 1679 470 1679H514Q584 1679 584 1608V1562Q584 1489 514 1489H470ZM792 1489Q719 1489 719 1562V1608Q719 1679 792 1679H836Q906 1679 906 1608V1562Q906 1489 836 1489H792Z" />
<glyph unicode="&#xc5;" glyph-name="Aring" horiz-adv-x="1298" d="M125 7Q55 35 83 104L566 1276Q591 1334 648 1334H653Q710 1331 731 1276L1219 104Q1247 35 1179 7Q1110 -20 1083 47L966 327H333L220 47Q192 -21 125 7ZM391 474H906L645 1101L391 474ZM651
1441Q580 1441 539 1481T497 1595Q497 1667 538 1707T651 1748Q723 1748 764 1708T806 1595Q806 1522 765 1482T651 1441ZM651 1548Q683 1548 690 1555T698 1595Q698 1627 691 1634T651 1642Q619 1642 612 1635T604 1595Q604 1563 611 1556T651 1548Z" />
<glyph unicode="&#xc6;" glyph-name="AE" horiz-adv-x="1698" d="M917 0Q844 0 844 74V327H379L216 42Q179 -25 116 12Q53 51 88 112L752 1283Q767 1309 788 1321T840 1334H1523Q1597 1334 1597 1260Q1597 1187 1523 1187H991V747H1287Q1361 747 1361 674Q1361
600 1287 600H991V147H1523Q1597 147 1597 74Q1597 0 1523 0H917ZM463 474H844V1157H841L463 474Z" />
<glyph unicode="&#xc7;" glyph-name="Ccedilla" horiz-adv-x="1372" d="M598 0Q373 0 267 106T160 438V896Q160 1123 266 1229T596 1334H838Q1024 1334 1120 1257T1230 1012Q1235 975 1216 956T1160 936Q1093 936 1083 1010Q1074 1112 1018 1149T838 1187H596Q487
1187 424 1161T334 1071T307 896V438Q307 328 334 265T424 174T598 147H838Q962 147 1018 184T1083 324Q1093 398 1160 398Q1197 398 1216 379T1230 322Q1216 154 1120 77T838 0H598ZM761 -421Q574 -421 574 -234Q574 -171 637 -171Q700 -171 700 -234Q700 -273
711 -284T761 -295Q823 -295 842 -276T862 -194Q862 -178 855 -168T819 -138Q801 -127 777 -107T734 -53T716 30Q716 93 779 93Q842 93 842 30Q842 10 850 -2T889 -35Q916 -53 952 -88T988 -194Q988 -308 932 -364T761 -421Z" />
<glyph unicode="&#xc8;" glyph-name="Egrave" horiz-adv-x="1178" d="M275 0Q201 0 201 74V1260Q201 1334 275 1334H1003Q1077 1334 1077 1260Q1077 1187 1003 1187H348V747H767Q841 747 841 674Q841 600 767 600H348V147H1003Q1077 147 1077 74Q1077 0 1003 0H275ZM750
1431Q698 1389 659 1439L504 1624Q462 1675 512 1715Q562 1758 603 1708L758 1523Q799 1472 750 1431Z" />
<glyph unicode="&#xc9;" glyph-name="Eacute" horiz-adv-x="1178" d="M623 1458Q574 1499 615 1549L770 1734Q811 1784 861 1742Q911 1702 869 1650L714 1465Q675 1415 623 1458ZM275 0Q201 0 201 74V1260Q201 1334 275 1334H1003Q1077 1334 1077 1260Q1077 1187
1003 1187H348V747H767Q841 747 841 674Q841 600 767 600H348V147H1003Q1077 147 1077 74Q1077 0 1003 0H275Z" />
<glyph unicode="&#xca;" glyph-name="Ecircumflex" horiz-adv-x="1178" d="M275 0Q201 0 201 74V1260Q201 1334 275 1334H1003Q1077 1334 1077 1260Q1077 1187 1003 1187H348V747H767Q841 747 841 674Q841 600 767 600H348V147H1003Q1077 147 1077 74Q1077 0 1003
0H275ZM427 1428Q399 1428 379 1447T359 1495Q359 1532 390 1553L579 1709Q616 1741 662 1741H674Q720 1741 757 1709L947 1553Q978 1531 978 1495Q978 1467 958 1448T911 1428Q883 1428 862 1448L672 1606H664L476 1448Q454 1428 427 1428Z" />
<glyph unicode="&#xcb;" glyph-name="Edieresis" horiz-adv-x="1178" d="M275 0Q201 0 201 74V1260Q201 1334 275 1334H1003Q1077 1334 1077 1260Q1077 1187 1003 1187H348V747H767Q841 747 841 674Q841 600 767 600H348V147H1003Q1077 147 1077 74Q1077 0 1003
0H275ZM489 1489Q416 1489 416 1562V1608Q416 1679 489 1679H533Q603 1679 603 1608V1562Q603 1489 533 1489H489ZM811 1489Q738 1489 738 1562V1608Q738 1679 811 1679H855Q925 1679 925 1608V1562Q925 1489 855 1489H811Z" />
<glyph unicode="&#xcc;" glyph-name="Igrave" horiz-adv-x="549" d="M275 0Q238 0 220 18T201 74V1259Q201 1297 219 1315T275 1333Q312 1333 330 1315T348 1259V74Q348 37 330 19T275 0ZM355 1431Q303 1389 264 1439L109 1624Q67 1675 117 1715Q167 1758 208
1708L363 1523Q404 1472 355 1431Z" />
<glyph unicode="&#xcd;" glyph-name="Iacute" horiz-adv-x="549" d="M228 1458Q179 1499 220 1549L375 1734Q416 1784 466 1742Q516 1702 474 1650L319 1465Q280 1415 228 1458ZM275 0Q238 0 220 18T201 74V1259Q201 1297 219 1315T275 1333Q312 1333 330 1315T348
1259V74Q348 37 330 19T275 0Z" />
<glyph unicode="&#xce;" glyph-name="Icircumflex" horiz-adv-x="549" d="M275 0Q238 0 220 18T201 74V1259Q201 1297 219 1315T275 1333Q312 1333 330 1315T348 1259V74Q348 37 330 19T275 0ZM87 1442Q62 1442 43 1461T24 1505Q24 1518 28 1528T41 1548L190 1709Q221
1744 268 1744H286Q333 1744 365 1709L513 1548Q522 1539 526 1529T530 1505Q530 1480 512 1461T467 1442Q437 1442 421 1462L288 1618H267L133 1462Q115 1442 87 1442Z" />
<glyph unicode="&#xcf;" glyph-name="Idieresis" horiz-adv-x="549" d="M275 0Q238 0 220 18T201 74V1259Q201 1297 219 1315T275 1333Q312 1333 330 1315T348 1259V74Q348 37 330 19T275 0ZM94 1489Q21 1489 21 1562V1608Q21 1679 94 1679H138Q208 1679 208 1608V1562Q208
1489 138 1489H94ZM416 1489Q343 1489 343 1562V1608Q343 1679 416 1679H460Q530 1679 530 1608V1562Q530 1489 460 1489H416Z" />
<glyph unicode="&#xd0;" glyph-name="Eth" horiz-adv-x="1414" d="M275 0Q201 0 201 74V1260Q201 1334 275 1334H757Q1014 1334 1134 1214T1254 836V498Q1254 241 1135 121T757 0H275ZM348 147H757Q887 147 964 180T1074 290T1107 498V836Q1107 966 1074 1043T964
1153T757 1187H348V147ZM104 605Q41 605 41 668Q41 731 104 731H626Q689 731 689 668Q689 605 626 605H104Z" />
<glyph unicode="&#xd1;" glyph-name="Ntilde" horiz-adv-x="1479" d="M275 0Q201 0 201 74V1260Q201 1334 275 1334Q313 1334 349 1290L1167 237H1131V1260Q1131 1334 1205 1334Q1278 1334 1278 1260V74Q1278 0 1205 0Q1165 0 1131 44L312 1097H348V74Q348 0 275
0ZM877 1462Q814 1462 777 1490T717 1541Q693 1566 678 1576T639 1587Q598 1587 582 1563T557 1516Q546 1492 530 1478T478 1475Q442 1486 437 1508T441 1553Q467 1626 517 1667T637 1708Q703 1708 742 1679T804 1626Q830 1601 843 1593T876 1585Q905 1585 918
1599T944 1645Q956 1673 972 1686T1021 1692Q1061 1682 1064 1658T1062 1615Q1037 1542 991 1502T877 1462Z" />
<glyph unicode="&#xd2;" glyph-name="Ograve" horiz-adv-x="1435" d="M598 0Q373 0 267 106T160 438V898Q160 1125 266 1230T597 1334H838Q1063 1334 1169 1228T1275 896V438Q1275 213 1169 107T838 0H598ZM598 147H838Q947 147 1010 174T1101 264T1128 438V896Q1128
1005 1101 1068T1011 1159T838 1187H597Q488 1188 425 1162T335 1072T307 898V438Q307 328 334 265T424 174T598 147ZM798 1431Q746 1389 707 1439L552 1624Q510 1675 560 1715Q610 1758 651 1708L806 1523Q847 1472 798 1431Z" />
<glyph unicode="&#xd3;" glyph-name="Oacute" horiz-adv-x="1435" d="M671 1458Q622 1499 663 1549L818 1734Q859 1784 909 1742Q959 1702 917 1650L762 1465Q723 1415 671 1458ZM598 0Q373 0 267 106T160 438V898Q160 1125 266 1230T597 1334H838Q1063 1334 1169
1228T1275 896V438Q1275 213 1169 107T838 0H598ZM598 147H838Q947 147 1010 174T1101 264T1128 438V896Q1128 1005 1101 1068T1011 1159T838 1187H597Q488 1188 425 1162T335 1072T307 898V438Q307 328 334 265T424 174T598 147Z" />
<glyph unicode="&#xd4;" glyph-name="Ocircumflex" horiz-adv-x="1435" d="M598 0Q373 0 267 106T160 438V898Q160 1125 266 1230T597 1334H838Q1063 1334 1169 1228T1275 896V438Q1275 213 1169 107T838 0H598ZM598 147H838Q947 147 1010 174T1101 264T1128 438V896Q1128
1005 1101 1068T1011 1159T838 1187H597Q488 1188 425 1162T335 1072T307 898V438Q307 328 334 265T424 174T598 147ZM475 1428Q447 1428 427 1447T407 1495Q407 1532 438 1553L627 1709Q664 1741 710 1741H722Q768 1741 805 1709L995 1553Q1026 1531 1026 1495Q1026
1467 1006 1448T959 1428Q931 1428 910 1448L720 1606H712L524 1448Q502 1428 475 1428Z" />
<glyph unicode="&#xd5;" glyph-name="Otilde" horiz-adv-x="1435" d="M598 0Q373 0 267 106T160 438V898Q160 1125 266 1230T597 1334H838Q1063 1334 1169 1228T1275 896V438Q1275 213 1169 107T838 0H598ZM598 147H838Q947 147 1010 174T1101 264T1128 438V896Q1128
1005 1101 1068T1011 1159T838 1187H597Q488 1188 425 1162T335 1072T307 898V438Q307 328 334 265T424 174T598 147ZM855 1462Q792 1462 755 1490T695 1541Q671 1566 656 1576T617 1587Q576 1587 560 1563T535 1516Q524 1492 508 1478T456 1475Q420 1486 415 1508T419
1553Q445 1626 495 1667T615 1708Q681 1708 720 1679T782 1626Q808 1601 821 1593T854 1585Q883 1585 896 1599T922 1645Q934 1673 950 1686T999 1692Q1039 1682 1042 1658T1040 1615Q1015 1542 969 1502T855 1462Z" />
<glyph unicode="&#xd6;" glyph-name="Odieresis" horiz-adv-x="1435" d="M598 0Q373 0 267 106T160 438V898Q160 1125 266 1230T597 1334H838Q1063 1334 1169 1228T1275 896V438Q1275 213 1169 107T838 0H598ZM598 147H838Q947 147 1010 174T1101 264T1128 438V896Q1128
1005 1101 1068T1011 1159T838 1187H597Q488 1188 425 1162T335 1072T307 898V438Q307 328 334 265T424 174T598 147ZM537 1489Q464 1489 464 1562V1608Q464 1679 537 1679H581Q651 1679 651 1608V1562Q651 1489 581 1489H537ZM859 1489Q786 1489 786 1562V1608Q786
1679 859 1679H903Q973 1679 973 1608V1562Q973 1489 903 1489H859Z" />
<glyph unicode="&#xd7;" glyph-name="multiply" horiz-adv-x="1186" d="M812 956Q857 1000 901 956Q946 911 901 866L379 344Q334 300 290 344Q245 389 290 433L812 956ZM287 872Q243 917 287 961Q332 1006 376 961L898 439Q943 394 898 350Q853 305 809 350L287 872Z" />
<glyph unicode="&#xd8;" glyph-name="Oslash" horiz-adv-x="1435" d="M598 0Q373 0 267 106T160 438V898Q160 1125 266 1230T597 1334H838Q1063 1334 1169 1228T1275 896V438Q1275 213 1169 107T838 0H598ZM598 147H838Q947 147 1010 174T1101 264T1128 438V896Q1128
1005 1101 1068T1011 1159T838 1187H597Q488 1188 425 1162T335 1072T307 898V438Q307 328 334 265T424 174T598 147ZM254 -57Q195 -20 230 39L1049 1378Q1086 1437 1144 1401Q1203 1364 1166 1306L350 -34Q312 -93 254 -57Z" />
<glyph unicode="&#xd9;" glyph-name="Ugrave" horiz-adv-x="1497" d="M629 0Q404 0 298 106T191 438V1260Q191 1296 210 1315T265 1334Q301 1334 319 1315T338 1260V438Q338 328 365 265T455 174T629 147H869Q978 147 1041 174T1132 264T1159 438V1260Q1159 1296
1178 1315T1233 1334Q1269 1334 1287 1315T1306 1260V438Q1306 213 1200 107T869 0H629ZM829 1431Q777 1389 738 1439L583 1624Q541 1675 591 1715Q641 1758 682 1708L837 1523Q878 1472 829 1431Z" />
<glyph unicode="&#xda;" glyph-name="Uacute" horiz-adv-x="1497" d="M702 1458Q653 1499 694 1549L849 1734Q890 1784 940 1742Q990 1702 948 1650L793 1465Q754 1415 702 1458ZM629 0Q404 0 298 106T191 438V1260Q191 1296 210 1315T265 1334Q301 1334 319 1315T338
1260V438Q338 328 365 265T455 174T629 147H869Q978 147 1041 174T1132 264T1159 438V1260Q1159 1296 1178 1315T1233 1334Q1269 1334 1287 1315T1306 1260V438Q1306 213 1200 107T869 0H629Z" />
<glyph unicode="&#xdb;" glyph-name="Ucircumflex" horiz-adv-x="1497" d="M629 0Q404 0 298 106T191 438V1260Q191 1296 210 1315T265 1334Q301 1334 319 1315T338 1260V438Q338 328 365 265T455 174T629 147H869Q978 147 1041 174T1132 264T1159 438V1260Q1159
1296 1178 1315T1233 1334Q1269 1334 1287 1315T1306 1260V438Q1306 213 1200 107T869 0H629ZM506 1428Q478 1428 458 1447T438 1495Q438 1532 469 1553L658 1709Q695 1741 741 1741H753Q799 1741 836 1709L1026 1553Q1057 1531 1057 1495Q1057 1467 1037 1448T990
1428Q962 1428 941 1448L751 1606H743L555 1448Q533 1428 506 1428Z" />
<glyph unicode="&#xdc;" glyph-name="Udieresis" horiz-adv-x="1497" d="M629 0Q404 0 298 106T191 438V1260Q191 1296 210 1315T265 1334Q301 1334 319 1315T338 1260V438Q338 328 365 265T455 174T629 147H869Q978 147 1041 174T1132 264T1159 438V1260Q1159
1296 1178 1315T1233 1334Q1269 1334 1287 1315T1306 1260V438Q1306 213 1200 107T869 0H629ZM568 1489Q495 1489 495 1562V1608Q495 1679 568 1679H612Q682 1679 682 1608V1562Q682 1489 612 1489H568ZM890 1489Q817 1489 817 1562V1608Q817 1679 890 1679H934Q1004
1679 1004 1608V1562Q1004 1489 934 1489H890Z" />
<glyph unicode="&#xdd;" glyph-name="Yacute" horiz-adv-x="1180" d="M542 1458Q493 1499 535 1549L689 1734Q731 1784 781 1742Q830 1702 788 1650L634 1465Q594 1415 542 1458ZM582 0Q509 0 509 74V494L54 1217Q17 1279 77 1320Q140 1358 179 1297L582 652L1001
1297Q1020 1326 1046 1331T1101 1317Q1165 1278 1124 1217L656 494V74Q656 0 582 0Z" />
<glyph unicode="&#xde;" glyph-name="Thorn" horiz-adv-x="1095" d="M275 0Q201 0 201 74V1260Q201 1334 275 1334Q348 1334 348 1260V1135H647Q826 1135 920 1041T1014 767V707Q1014 528 920 434T647 340H348V74Q348 0 275 0ZM348 487H647Q765 487 816 538T867
707V767Q867 885 816 936T647 988H348V487Z" />
<glyph unicode="&#xdf;" glyph-name="germandbls" horiz-adv-x="1139" d="M275 1Q201 1 201 74V1042Q201 1225 289 1313T561 1401Q743 1401 830 1314T918 1044Q918 966 888 900T774 790Q918 757 978 675T1038 456V378Q1038 184 947 93T661 1H539Q465 1 465 74Q465
148 539 148H661Q794 148 842 196T891 378V456Q891 589 843 637T661 686H634Q561 686 561 761Q561 829 633 837Q712 848 741 895T771 1044Q771 1165 727 1209T561 1254Q438 1254 393 1210T348 1042V74Q348 1 275 1Z" />
<glyph unicode="&#xe0;" glyph-name="agrave" horiz-adv-x="1266" d="M503 0Q339 0 260 79T181 322Q181 486 259 565T503 644H936Q932 758 880 801T703 844H587Q478 844 426 826T355 763Q341 727 325 713T274 698Q237 698 217 718T204 773Q228 886 322 938T587
991H703Q898 991 991 898T1084 610V74Q1084 0 1011 0Q937 0 937 74V137Q834 0 615 0H503ZM503 147H615Q696 147 764 163T878 219T937 331V497H503Q400 497 364 461T328 322Q328 219 364 183T503 147ZM709 1088Q657 1046 618 1096L463 1281Q421 1332 471 1372Q521
1415 562 1365L717 1180Q758 1129 709 1088Z" />
<glyph unicode="&#xe1;" glyph-name="aacute" horiz-adv-x="1266" d="M582 1115Q533 1156 574 1207L729 1392Q770 1442 820 1399Q870 1359 828 1308L673 1123Q634 1073 582 1115ZM503 0Q339 0 260 79T181 322Q181 486 259 565T503 644H936Q932 758 880 801T703
844H587Q478 844 426 826T355 763Q341 727 325 713T274 698Q237 698 217 718T204 773Q228 886 322 938T587 991H703Q898 991 991 898T1084 610V74Q1084 0 1011 0Q937 0 937 74V137Q834 0 615 0H503ZM503 147H615Q696 147 764 163T878 219T937 331V497H503Q400 497
364 461T328 322Q328 219 364 183T503 147Z" />
<glyph unicode="&#xe2;" glyph-name="acircumflex" horiz-adv-x="1266" d="M503 0Q339 0 260 79T181 322Q181 486 259 565T503 644H936Q932 758 880 801T703 844H587Q478 844 426 826T355 763Q341 727 325 713T274 698Q237 698 217 718T204 773Q228 886 322 938T587
991H703Q898 991 991 898T1084 610V74Q1084 0 1011 0Q937 0 937 74V137Q834 0 615 0H503ZM503 147H615Q696 147 764 163T878 219T937 331V497H503Q400 497 364 461T328 322Q328 219 364 183T503 147ZM441 1099Q416 1099 397 1118T378 1162Q378 1175 382 1185T395
1205L544 1366Q575 1401 622 1401H640Q687 1401 719 1366L867 1205Q876 1196 880 1186T884 1162Q884 1137 866 1118T821 1099Q791 1099 775 1119L642 1275H621L487 1119Q469 1099 441 1099Z" />
<glyph unicode="&#xe3;" glyph-name="atilde" horiz-adv-x="1266" d="M503 0Q339 0 260 79T181 322Q181 486 259 565T503 644H936Q932 758 880 801T703 844H587Q478 844 426 826T355 763Q341 727 325 713T274 698Q237 698 217 718T204 773Q228 886 322 938T587
991H703Q898 991 991 898T1084 610V74Q1084 0 1011 0Q937 0 937 74V137Q834 0 615 0H503ZM503 147H615Q696 147 764 163T878 219T937 331V497H503Q400 497 364 461T328 322Q328 219 364 183T503 147ZM766 1120Q703 1120 666 1148T606 1199Q582 1224 567 1234T528
1245Q487 1245 471 1221T446 1174Q435 1150 419 1136T367 1133Q331 1144 326 1166T330 1211Q356 1284 406 1325T526 1366Q592 1366 631 1337T693 1284Q719 1259 732 1251T765 1243Q794 1243 807 1257T833 1303Q845 1331 861 1344T910 1350Q950 1340 953 1316T951
1273Q926 1200 880 1160T766 1120Z" />
<glyph unicode="&#xe4;" glyph-name="adieresis" horiz-adv-x="1266" d="M503 0Q339 0 260 79T181 322Q181 486 259 565T503 644H936Q932 758 880 801T703 844H587Q478 844 426 826T355 763Q341 727 325 713T274 698Q237 698 217 718T204 773Q228 886 322 938T587
991H703Q898 991 991 898T1084 610V74Q1084 0 1011 0Q937 0 937 74V137Q834 0 615 0H503ZM503 147H615Q696 147 764 163T878 219T937 331V497H503Q400 497 364 461T328 322Q328 219 364 183T503 147ZM448 1146Q375 1146 375 1219V1265Q375 1336 448 1336H492Q562
1336 562 1265V1219Q562 1146 492 1146H448ZM770 1146Q697 1146 697 1219V1265Q697 1336 770 1336H814Q884 1336 884 1265V1219Q884 1146 814 1146H770Z" />
<glyph unicode="&#xe5;" glyph-name="aring" horiz-adv-x="1266" d="M503 0Q339 0 260 79T181 322Q181 486 259 565T503 644H936Q932 758 880 801T703 844H587Q478 844 426 826T355 763Q341 727 325 713T274 698Q237 698 217 718T204 773Q228 886 322 938T587
991H703Q898 991 991 898T1084 610V74Q1084 0 1011 0Q937 0 937 74V137Q834 0 615 0H503ZM503 147H615Q696 147 764 163T878 219T937 331V497H503Q400 497 364 461T328 322Q328 219 364 183T503 147ZM629 1099Q558 1099 517 1139T475 1253Q475 1325 516 1365T629
1406Q701 1406 742 1366T784 1253Q784 1180 743 1140T629 1099ZM629 1206Q661 1206 668 1213T676 1253Q676 1285 669 1292T629 1300Q597 1300 590 1293T582 1253Q582 1221 589 1214T629 1206Z" />
<glyph unicode="&#xe6;" glyph-name="ae" horiz-adv-x="1924" d="M1269 -33Q1047 -33 957 140Q837 -29 575 -29H503Q339 -29 260 49T181 292Q181 445 260 522T503 599H897Q889 721 838 765T663 809H587Q451 809 401 787T345 725Q339 695 321 673T271 651Q241 651
220 673T198 725Q198 830 299 893T587 956H663Q878 956 971 800Q1060 957 1271 954H1391Q1583 954 1673 851T1764 525Q1764 452 1689 452H1044V352Q1044 215 1093 165T1269 114H1391Q1523 114 1570 144T1617 263Q1617 293 1639 314T1691 336Q1721 336 1742 315T1764
263Q1764 106 1672 37T1391 -33H1269ZM503 118H575Q742 118 819 174T897 344V452H503Q400 452 364 418T328 292Q328 189 364 154T503 118ZM1046 599H1613Q1602 718 1551 762T1391 807H1271Q1152 809 1103 765T1046 599Z" />
<glyph unicode="&#xe7;" glyph-name="ccedilla" horiz-adv-x="1182" d="M542 0Q347 0 254 93T160 382V612Q160 807 252 900T542 991H706Q854 991 937 941T1041 787Q1048 750 1028 730T969 710Q935 710 919 727T891 777Q877 814 835 829T706 844H542Q408 846 358
797T307 612V382Q307 247 357 197T542 147H706Q792 147 834 162T891 215Q903 248 919 265T970 282Q1007 282 1027 262T1041 205Q1020 101 937 51T706 0H542ZM669 -421Q482 -421 482 -234Q482 -171 545 -171Q608 -171 608 -234Q608 -273 619 -284T669 -295Q731 -295
750 -276T770 -194Q770 -178 763 -168T727 -138Q709 -127 685 -107T642 -53T624 30Q624 93 687 93Q750 93 750 30Q750 10 758 -2T797 -35Q824 -53 860 -88T896 -194Q896 -308 840 -364T669 -421Z" />
<glyph unicode="&#xe8;" glyph-name="egrave" horiz-adv-x="1247" d="M307 436V380Q307 247 357 197T542 147H706Q816 147 867 170T934 253Q942 286 959 304T1012 322Q1049 322 1068 303T1081 246Q1062 121 969 61T706 0H542Q347 0 254 93T160 380V610Q160 808
253 900T542 991H706Q901 991 994 899T1087 610V510Q1087 436 1014 436H307ZM542 844Q407 846 357 796T307 610V583H940V610Q940 745 891 794T706 844H542ZM709 1088Q657 1046 618 1096L463 1281Q421 1332 471 1372Q521 1415 562 1365L717 1180Q758 1129 709 1088Z"
/>
<glyph unicode="&#xe9;" glyph-name="eacute" horiz-adv-x="1247" d="M582 1115Q533 1156 575 1207L729 1392Q771 1442 821 1399Q870 1359 828 1308L674 1123Q634 1073 582 1115ZM307 436V380Q307 247 357 197T542 147H706Q816 147 867 170T934 253Q942 286 959
304T1012 322Q1049 322 1068 303T1081 246Q1062 121 969 61T706 0H542Q347 0 254 93T160 380V610Q160 808 253 900T542 991H706Q901 991 994 899T1087 610V510Q1087 436 1014 436H307ZM542 844Q407 846 357 796T307 610V583H940V610Q940 745 891 794T706 844H542Z"
/>
<glyph unicode="&#xea;" glyph-name="ecircumflex" horiz-adv-x="1247" d="M307 436V380Q307 247 357 197T542 147H706Q816 147 867 170T934 253Q942 286 959 304T1012 322Q1049 322 1068 303T1081 246Q1062 121 969 61T706 0H542Q347 0 254 93T160 380V610Q160
808 253 900T542 991H706Q901 991 994 899T1087 610V510Q1087 436 1014 436H307ZM542 844Q407 846 357 796T307 610V583H940V610Q940 745 891 794T706 844H542ZM442 1099Q417 1099 398 1118T379 1162Q379 1175 383 1185T396 1205L545 1366Q576 1401 623 1401H641Q688
1401 720 1366L868 1205Q877 1196 881 1186T885 1162Q885 1137 867 1118T822 1099Q792 1099 776 1119L643 1275H622L488 1119Q470 1099 442 1099Z" />
<glyph unicode="&#xeb;" glyph-name="edieresis" horiz-adv-x="1247" d="M307 436V380Q307 247 357 197T542 147H706Q816 147 867 170T934 253Q942 286 959 304T1012 322Q1049 322 1068 303T1081 246Q1062 121 969 61T706 0H542Q347 0 254 93T160 380V610Q160
808 253 900T542 991H706Q901 991 994 899T1087 610V510Q1087 436 1014 436H307ZM542 844Q407 846 357 796T307 610V583H940V610Q940 745 891 794T706 844H542ZM449 1146Q376 1146 376 1219V1265Q376 1336 449 1336H493Q563 1336 563 1265V1219Q563 1146 493 1146H449ZM771
1146Q698 1146 698 1219V1265Q698 1336 771 1336H815Q885 1336 885 1265V1219Q885 1146 815 1146H771Z" />
<glyph unicode="&#xec;" glyph-name="igrave" horiz-adv-x="549" d="M275 0Q201 0 201 74V918Q201 991 275 991Q348 991 348 918V74Q348 0 275 0ZM609 1088Q557 1046 518 1096L363 1281Q321 1332 371 1372Q421 1415 462 1365L617 1180Q658 1129 609 1088Z" />
<glyph unicode="&#xed;" glyph-name="iacute" horiz-adv-x="549" d="M226 1115Q177 1156 219 1207L373 1392Q415 1442 465 1399Q514 1359 472 1308L318 1123Q278 1073 226 1115ZM275 0Q201 0 201 74V918Q201 991 275 991Q348 991 348 918V74Q348 0 275 0Z" />
<glyph unicode="&#xee;" glyph-name="icircumflex" horiz-adv-x="549" d="M275 0Q201 0 201 74V918Q201 991 275 991Q348 991 348 918V74Q348 0 275 0ZM342 1099Q317 1099 298 1118T279 1162Q279 1175 283 1185T296 1205L445 1366Q476 1401 523 1401H541Q588 1401
620 1366L768 1205Q777 1196 781 1186T785 1162Q785 1137 767 1118T722 1099Q692 1099 676 1119L543 1275H522L388 1119Q370 1099 342 1099Z" />
<glyph unicode="&#xef;" glyph-name="idieresis" horiz-adv-x="549" d="M275 0Q201 0 201 74V918Q201 991 275 991Q348 991 348 918V74Q348 0 275 0ZM93 1146Q20 1146 20 1219V1265Q20 1336 93 1336H137Q207 1336 207 1265V1219Q207 1146 137 1146H93ZM415 1146Q342
1146 342 1219V1265Q342 1336 415 1336H459Q529 1336 529 1265V1219Q529 1146 459 1146H415Z" />
<glyph unicode="&#xf0;" glyph-name="eth" horiz-adv-x="1247" d="M542 1Q347 1 254 93T160 380V610Q160 807 253 899T542 992H706Q773 992 828 970T926 901Q915 1006 894 1067T842 1156T769 1195L304 1312Q232 1332 250 1403Q268 1475 339 1456L807 1338Q950
1304 1015 1146T1087 664V382Q1087 186 994 94T706 1H542ZM542 148H706Q841 148 890 198T940 382V607Q940 698 919 749T847 823T706 845H542Q452 844 401 824T329 752T307 610V380Q307 247 357 198T542 148ZM494 1121Q447 1075 403 1123Q357 1172 405 1215L702
1495Q749 1541 793 1493Q837 1445 791 1401L494 1121Z" />
<glyph unicode="&#xf1;" glyph-name="ntilde" horiz-adv-x="1290" d="M275 0Q201 0 201 74V918Q201 991 275 991Q348 991 348 918V864Q450 991 671 991H727Q922 991 1015 898T1108 610V74Q1108 0 1035 0Q961 0 961 74V610Q961 745 911 794T727 844H671Q539 844
450 810T348 701V74Q348 0 275 0ZM834 1120Q771 1120 734 1148T674 1199Q650 1224 635 1234T596 1245Q555 1245 539 1221T514 1174Q503 1150 487 1136T435 1133Q399 1144 394 1166T398 1211Q424 1284 474 1325T594 1366Q660 1366 699 1337T761 1284Q787 1259 800
1251T833 1243Q862 1243 875 1257T901 1303Q913 1331 929 1344T978 1350Q1018 1340 1021 1316T1019 1273Q994 1200 948 1160T834 1120Z" />
<glyph unicode="&#xf2;" glyph-name="ograve" horiz-adv-x="1247" d="M542 0Q347 0 254 93T160 380V610Q160 807 253 899T542 991H706Q901 991 994 898T1087 610V382Q1087 187 994 94T706 0H542ZM307 380Q307 247 357 197T542 147H706Q841 147 890 197T940 382V610Q940
745 891 794T706 844H542Q452 844 401 823T329 751T307 610V380ZM704 1088Q652 1046 613 1096L458 1281Q416 1332 466 1372Q516 1415 557 1365L712 1180Q753 1129 704 1088Z" />
<glyph unicode="&#xf3;" glyph-name="oacute" horiz-adv-x="1247" d="M577 1115Q528 1156 569 1207L724 1392Q765 1442 815 1399Q865 1359 823 1308L668 1123Q629 1073 577 1115ZM542 0Q347 0 254 93T160 380V610Q160 807 253 899T542 991H706Q901 991 994 898T1087
610V382Q1087 187 994 94T706 0H542ZM307 380Q307 247 357 197T542 147H706Q841 147 890 197T940 382V610Q940 745 891 794T706 844H542Q452 844 401 823T329 751T307 610V380Z" />
<glyph unicode="&#xf4;" glyph-name="ocircumflex" horiz-adv-x="1247" d="M542 0Q347 0 254 93T160 380V610Q160 807 253 899T542 991H706Q901 991 994 898T1087 610V382Q1087 187 994 94T706 0H542ZM307 380Q307 247 357 197T542 147H706Q841 147 890 197T940
382V610Q940 745 891 794T706 844H542Q452 844 401 823T329 751T307 610V380ZM436 1099Q411 1099 392 1118T373 1162Q373 1175 377 1185T390 1205L539 1366Q570 1401 617 1401H635Q682 1401 714 1366L862 1205Q871 1196 875 1186T879 1162Q879 1137 861 1118T816
1099Q786 1099 770 1119L637 1275H616L482 1119Q464 1099 436 1099Z" />
<glyph unicode="&#xf5;" glyph-name="otilde" horiz-adv-x="1247" d="M542 0Q347 0 254 93T160 380V610Q160 807 253 899T542 991H706Q901 991 994 898T1087 610V382Q1087 187 994 94T706 0H542ZM307 380Q307 247 357 197T542 147H706Q841 147 890 197T940 382V610Q940
745 891 794T706 844H542Q452 844 401 823T329 751T307 610V380ZM761 1120Q698 1120 661 1148T601 1199Q577 1224 562 1234T523 1245Q482 1245 466 1221T441 1174Q430 1150 414 1136T362 1133Q326 1144 321 1166T325 1211Q351 1284 401 1325T521 1366Q587 1366
626 1337T688 1284Q714 1259 727 1251T760 1243Q789 1243 802 1257T828 1303Q840 1331 856 1344T905 1350Q945 1340 948 1316T946 1273Q921 1200 875 1160T761 1120Z" />
<glyph unicode="&#xf6;" glyph-name="odieresis" horiz-adv-x="1247" d="M542 0Q347 0 254 93T160 380V610Q160 807 253 899T542 991H706Q901 991 994 898T1087 610V382Q1087 187 994 94T706 0H542ZM307 380Q307 247 357 197T542 147H706Q841 147 890 197T940
382V610Q940 745 891 794T706 844H542Q452 844 401 823T329 751T307 610V380ZM443 1146Q370 1146 370 1219V1265Q370 1336 443 1336H487Q557 1336 557 1265V1219Q557 1146 487 1146H443ZM765 1146Q692 1146 692 1219V1265Q692 1336 765 1336H809Q879 1336 879 1265V1219Q879
1146 809 1146H765Z" />
<glyph unicode="&#xf7;" glyph-name="divide" horiz-adv-x="1186" d="M224 668Q161 668 161 731Q161 794 224 794H962Q1025 794 1025 731Q1025 668 962 668H224ZM570 307Q497 307 497 380V426Q497 497 570 497H614Q684 497 684 426V380Q684 307 614 307H570ZM570
967Q497 967 497 1040V1086Q497 1157 570 1157H614Q684 1157 684 1086V1040Q684 967 614 967H570Z" />
<glyph unicode="&#xf8;" glyph-name="oslash" horiz-adv-x="1247" d="M236 -123Q209 -106 203 -84T214 -34L300 104L324 128L808 902L818 926L893 1050Q928 1104 983 1071Q1037 1035 1003 981L933 868L908 838L441 89L423 55L326 -101Q292 -158 236 -123ZM542
0Q347 0 254 93T160 380V610Q160 807 253 899T542 991H706Q901 991 994 898T1087 610V382Q1087 187 994 94T706 0H542ZM307 380Q307 247 357 197T542 147H706Q841 147 890 197T940 382V610Q940 745 891 794T706 844H542Q452 844 401 823T329 751T307 610V380Z"
/>
<glyph unicode="&#xf9;" glyph-name="ugrave" horiz-adv-x="1290" d="M1015 991Q1089 991 1089 918V74Q1089 0 1015 0Q942 0 942 74V127Q839 0 619 0H563Q368 0 275 93T182 382V918Q182 991 255 991Q329 991 329 918V382Q329 247 379 197T563 147H619Q751 147
840 182T942 291V918Q942 991 1015 991ZM715 1088Q663 1046 624 1096L469 1281Q427 1332 477 1372Q527 1415 568 1365L723 1180Q764 1129 715 1088Z" />
<glyph unicode="&#xfa;" glyph-name="uacute" horiz-adv-x="1290" d="M1015 991Q1089 991 1089 918V74Q1089 0 1015 0Q942 0 942 74V127Q839 0 619 0H563Q368 0 275 93T182 382V918Q182 991 255 991Q329 991 329 918V382Q329 247 379 197T563 147H619Q751 147
840 182T942 291V918Q942 991 1015 991ZM588 1115Q539 1156 581 1207L735 1392Q777 1442 827 1399Q876 1359 834 1308L680 1123Q640 1073 588 1115Z" />
<glyph unicode="&#xfb;" glyph-name="ucircumflex" horiz-adv-x="1290" d="M1015 991Q1089 991 1089 918V74Q1089 0 1015 0Q942 0 942 74V127Q839 0 619 0H563Q368 0 275 93T182 382V918Q182 991 255 991Q329 991 329 918V382Q329 247 379 197T563 147H619Q751
147 840 182T942 291V918Q942 991 1015 991ZM448 1099Q422 1099 404 1118T385 1162Q385 1175 389 1185T402 1205L550 1366Q581 1401 629 1401H647Q694 1401 725 1366L874 1205Q883 1196 887 1186T891 1162Q891 1137 873 1118T828 1099Q797 1099 782 1119L648 1275H627L494
1119Q476 1099 448 1099Z" />
<glyph unicode="&#xfc;" glyph-name="udieresis" horiz-adv-x="1290" d="M1015 991Q1089 991 1089 918V74Q1089 0 1015 0Q942 0 942 74V127Q839 0 619 0H563Q368 0 275 93T182 382V918Q182 991 255 991Q329 991 329 918V382Q329 247 379 197T563 147H619Q751 147
840 182T942 291V918Q942 991 1015 991ZM454 1146Q382 1146 382 1219V1265Q382 1336 454 1336H499Q568 1336 568 1265V1219Q568 1146 499 1146H454ZM776 1146Q704 1146 704 1219V1265Q704 1336 776 1336H821Q890 1336 890 1265V1219Q890 1146 821 1146H776Z" />
<glyph unicode="&#xfd;" glyph-name="yacute" horiz-adv-x="1312" d="M599 1115Q550 1156 592 1207L746 1392Q788 1442 838 1399Q887 1359 845 1308L691 1123Q651 1073 599 1115ZM459 -400Q319 -400 251 -331T182 -120Q182 -47 255 -47Q329 -47 329 -120Q329 -200
354 -226T459 -253H833Q912 -253 938 -227T964 -120V141Q905 56 823 28T641 0H557Q364 0 273 91T182 373V918Q182 992 255 992Q329 992 329 918V373Q329 243 377 195T557 147H641Q809 147 886 203T964 373V918Q964 992 1037 992Q1111 992 1111 918V-120Q1111 -261
1042 -330T833 -400H459Z" />
<glyph unicode="&#xfe;" glyph-name="thorn" horiz-adv-x="1288" d="M275 -400Q235 -400 218 -383T201 -326V1278Q201 1318 218 1334T275 1351Q315 1351 331 1335T348 1278V847Q467 987 671 987H747Q942 987 1035 894T1128 606V384Q1128 189 1035 96T747 2H348V-326Q348
-366 332 -383T275 -400ZM348 149H747Q882 149 931 199T981 384V606Q981 741 932 790T747 840H671Q504 840 426 784T348 614V149Z" />
<glyph unicode="&#xff;" glyph-name="ydieresis" horiz-adv-x="1312" d="M459 -400Q319 -400 251 -331T182 -120Q182 -47 255 -47Q329 -47 329 -120Q329 -200 354 -226T459 -253H833Q912 -253 938 -227T964 -120V141Q905 56 823 28T641 0H557Q364 0 273 91T182
373V918Q182 992 255 992Q329 992 329 918V373Q329 243 377 195T557 147H641Q809 147 886 203T964 373V918Q964 992 1037 992Q1111 992 1111 918V-120Q1111 -261 1042 -330T833 -400H459ZM466 1146Q393 1146 393 1219V1265Q393 1336 466 1336H510Q580 1336 580
1265V1219Q580 1146 510 1146H466ZM788 1146Q715 1146 715 1219V1265Q715 1336 788 1336H832Q902 1336 902 1265V1219Q902 1146 832 1146H788Z" />
<glyph unicode="&#x2013;" glyph-name="endash" horiz-adv-x="1186" d="M224 479Q161 479 161 542Q161 605 224 605H962Q1025 605 1025 542Q1025 479 962 479H224Z" />
<glyph unicode="&#x2014;" glyph-name="emdash" horiz-adv-x="1681" d="M224 476Q199 476 180 494T161 539Q161 565 180 583T224 602H1457Q1483 602 1501 584T1520 539Q1520 513 1502 495T1457 476H224Z" />
<glyph unicode="&#x2018;" glyph-name="quoteleft" horiz-adv-x="511" d="M297 1411Q329 1411 351 1388T357 1325L256 1075L138 1124L239 1372Q245 1390 261 1400T297 1411ZM248 1167Q321 1167 321 1094V1048Q321 977 248 977H204Q134 977 134 1048V1094Q134 1167
204 1167H248Z" />
<glyph unicode="&#x2019;" glyph-name="quoteright" horiz-adv-x="470" d="M146 968Q115 968 93 991T86 1054L187 1304L305 1255L204 1006Q197 988 182 978T146 968ZM195 1212Q122 1212 122 1285V1331Q122 1402 195 1402H239Q309 1402 309 1331V1285Q309 1212
239 1212H195Z" />
<glyph unicode="&#x201a;" glyph-name="quotesinglbase" horiz-adv-x="470" d="M146 -244Q115 -244 93 -221T86 -158L187 92L305 43L204 -206Q197 -224 182 -234T146 -244ZM195 0Q122 0 122 73V119Q122 190 195 190H239Q309 190 309 119V73Q309 0 239 0H195Z" />
<glyph unicode="&#x201c;" glyph-name="quotedblleft" horiz-adv-x="791" d="M577 1411Q609 1411 631 1388T637 1325L536 1075L418 1124L519 1372Q525 1390 541 1400T577 1411ZM528 1167Q601 1167 601 1094V1048Q601 977 528 977H484Q414 977 414 1048V1094Q414
1167 484 1167H528ZM297 1411Q329 1411 351 1388T357 1325L256 1075L138 1124L239 1372Q245 1390 261 1400T297 1411ZM248 1167Q321 1167 321 1094V1048Q321 977 248 977H204Q134 977 134 1048V1094Q134 1167 204 1167H248Z" />
<glyph unicode="&#x201d;" glyph-name="quotedblright" horiz-adv-x="770" d="M446 968Q415 968 393 991T386 1054L487 1304L605 1255L504 1006Q497 988 482 978T446 968ZM495 1212Q422 1212 422 1285V1331Q422 1402 495 1402H539Q609 1402 609 1331V1285Q609
1212 539 1212H495ZM146 968Q115 968 93 991T86 1054L187 1304L305 1255L204 1006Q197 988 182 978T146 968ZM195 1212Q122 1212 122 1285V1331Q122 1402 195 1402H239Q309 1402 309 1331V1285Q309 1212 239 1212H195Z" />
<glyph unicode="&#x201e;" glyph-name="quotedblbase" horiz-adv-x="770" d="M446 -244Q415 -244 393 -221T386 -158L487 92L605 43L504 -206Q497 -224 482 -234T446 -244ZM495 0Q422 0 422 73V119Q422 190 495 190H539Q609 190 609 119V73Q609 0 539 0H495ZM146
-244Q115 -244 93 -221T86 -158L187 92L305 43L204 -206Q197 -224 182 -234T146 -244ZM195 0Q122 0 122 73V119Q122 190 195 190H239Q309 190 309 119V73Q309 0 239 0H195Z" />
<glyph unicode="&#x2022;" glyph-name="bullet" horiz-adv-x="695" d="M306 364Q161 364 161 510V602Q161 744 306 744H395Q534 744 534 602V510Q534 364 395 364H306Z" />
<glyph unicode="&#x2039;" glyph-name="guilsinglleft" horiz-adv-x="864" d="M620 221Q595 221 580 236L208 543Q152 588 208 633L580 941Q595 955 620 955Q646 955 664 937T683 892Q683 878 676 866T658 844L349 588L658 333Q669 324 676 312T683 284Q683 259
665 240T620 221Z" />
<glyph unicode="&#x203a;" glyph-name="guilsinglright" horiz-adv-x="864" d="M244 221Q219 221 200 240T181 284Q181 300 188 312T206 333L515 588L206 844Q195 853 188 865T181 892Q181 918 200 936T244 955Q268 955 284 941L656 633Q712 588 656 543L284 236Q268
221 244 221Z" />
</font>
</defs>
</svg>
